<svg width="116" height="49" viewBox="0 0 116 49" fill="none" xmlns="http://www.w3.org/2000/svg">
<g clip-path="url(#clip0_1120_416)">
<path d="M41.0453 16.7075C38.5019 16.7368 37.5249 18.9091 37.5355 19.8351C38.1521 19.8281 44.9345 19.75 44.9345 19.75C44.992 18.0514 43.5887 16.6783 41.0453 16.7075Z" fill="black"/>
<path d="M98.935 3.38381L101.633 3.35278C102.943 3.3377 103.86 2.63253 103.847 1.55214C103.841 1.01194 103.682 0.627864 103.294 0.323615L98.9004 0.374161L98.935 3.38381Z" fill="white"/>
<path d="M108.15 0.267737C108.624 1.26563 108.945 2.41965 108.959 3.65438C109.01 8.0531 105.506 11.6437 101.112 11.6943C96.7192 11.7448 93.133 8.23577 93.0824 3.83705C93.0682 2.60232 93.3641 1.51838 93.8141 0.432676L0.09375 1.51099L11.1925 48.3092C17.6178 43.9903 25.6811 41.3506 34.5445 41.2486C43.4078 41.1467 51.6069 43.5993 58.1307 47.8463C64.5551 43.4503 72.6955 40.8097 81.5588 40.7077C90.4222 40.6057 98.5441 43.0592 105.067 47.2291L115.086 0.187928L108.15 0.267737ZM30.7109 29.6384L28.3217 29.6659L26.2407 29.6899L16.0671 29.8069L15.8896 14.3728L22.1324 14.301L22.2647 25.7994L26.2725 25.7533L28.3535 25.7293L30.7427 25.7018L30.788 29.6375L30.7109 29.6384ZM42.0087 26.7299C44.3979 26.7024 45.2315 25.458 45.3032 24.9941C46.4593 24.9808 50.313 24.9364 51.0066 24.9284C50.7896 26.1658 49.7221 27.1815 48.7282 27.8875C46.3585 29.6128 42.7387 29.886 41.5826 29.8993C41.5055 29.9001 41.3514 29.9019 41.2743 29.9028C35.8766 29.7334 31.153 27.8582 31.0828 21.7617C30.9985 14.4305 39.1566 13.3333 41.0064 13.312L41.0834 13.3111C43.6277 13.359 46.5618 13.7884 48.6685 16.0024C49.9947 17.3764 50.9471 19.758 51.0606 22.9211C51.0606 22.9211 38.2665 23.0683 37.65 23.0754C37.5995 25.3914 39.6194 26.7574 42.0087 26.7299ZM63.621 29.2598L62.4649 29.2731L58.38 29.3201L49.4197 14.2957L49.34 14.0651L49.4941 14.0633L56.5077 13.9826L61.9376 23.645L66.6034 13.7893L71.4589 13.7334L63.621 29.2598ZM78.496 29.0886L72.3302 29.1596L72.1526 13.7255L78.3184 13.6545L78.496 29.0886ZM83.4212 14.9851C83.3539 15.8348 82.7462 16.6136 81.9028 17.0092C81.6725 17.0891 81.3651 17.1698 80.9797 17.1742L80.9726 16.5569C81.9746 16.5453 81.8833 15.3115 81.8027 15.0037L79.7988 15.0267L79.7659 12.1714L81.8469 12.1475L83.3883 12.1298L83.4212 14.9851ZM92.0652 29.3184C87.0555 29.3761 84.4899 27.4761 84.2249 24.5462C86.8454 24.5161 86.1517 24.5241 88.696 24.572C89.1815 26.5731 90.2641 26.8694 92.5763 26.8428C93.7333 26.9066 95.3447 26.2706 95.3323 25.1902C95.3198 24.1099 94.1602 23.8145 91.6877 23.3027C87.9013 22.4972 83.8085 21.8497 83.773 18.7629C83.7295 14.9815 88.7932 12.9166 92.8027 13.0248C92.8798 13.0239 92.9569 13.023 93.0339 13.0221C98.7373 12.9565 100.702 16.2527 100.72 17.7961L96.0966 17.9265C95.7697 16.3094 94.3788 16.0167 92.6814 15.8819C92.5273 15.8836 92.3731 15.8854 92.219 15.8872C90.6005 15.9058 89.3726 16.383 89.386 17.5406C89.3993 18.6981 91.4076 19.0609 93.1041 19.1186C93.3353 19.1159 101.05 19.6446 101.099 23.889C101.22 27.7467 97.0749 29.2608 92.0652 29.3184Z" fill="#2B2B2B"/>
<path d="M104.848 1.46344C104.865 2.92968 103.873 3.79008 102.489 4.03756L105.227 7.55637L103.994 7.57055L101.411 4.20431L98.945 4.23269L98.984 7.62819L98.0592 7.63884L97.9757 0.3848L94.9699 0.419384C94.4419 1.42881 94.1469 2.58991 94.1611 3.82464C94.2055 7.68317 97.324 10.7345 101.178 10.6902C105.031 10.6458 108.079 7.52356 108.034 3.66503C108.02 2.4303 107.698 1.27628 107.147 0.279274L104.681 0.307651C104.763 0.692617 104.844 1.07758 104.848 1.46344Z" fill="white"/>
<path d="M26.1955 25.7542L22.1878 25.8003L22.0555 14.3019L15.8896 14.3728L16.0672 29.8069L26.2408 29.6899L28.3989 29.665L30.711 29.6384L30.6658 25.7027L28.3536 25.7293L26.1955 25.7542Z" fill="white"/>
<path d="M48.5918 16.0804C46.563 13.9427 43.551 13.4371 41.0067 13.3892C40.9296 13.3901 40.9296 13.3901 40.9296 13.3901C39.0799 13.4114 30.9217 14.5086 31.006 21.8398C31.0762 27.9363 35.8769 29.8105 41.1976 29.9809C41.2746 29.98 41.4288 29.9782 41.5059 29.9773C42.6619 29.964 46.3588 29.6899 48.6514 27.9656C49.6454 27.2595 50.7128 26.2439 50.9299 25.0065C50.2362 25.0145 46.4596 25.0579 45.2265 25.0721C45.0777 25.5369 44.3211 26.7805 41.9319 26.808C39.5426 26.8355 37.5228 25.4695 37.4961 23.1544C38.1127 23.1473 50.9068 23.0001 50.9068 23.0001C50.8695 19.7589 49.995 17.4535 48.5918 16.0804ZM37.535 19.8351C37.5244 18.9091 38.4244 16.7377 41.0449 16.7075C43.6653 16.6774 44.9145 18.0523 44.934 19.75C44.934 19.75 38.1516 19.828 37.535 19.8351Z" fill="white"/>
<path d="M93.1792 18.9634C91.4048 18.8294 89.4744 18.5429 89.4611 17.3854C89.4478 16.2278 90.6756 15.7506 92.2941 15.732C92.4483 15.7302 92.6024 15.7284 92.7566 15.7266C94.4539 15.8615 95.8439 16.077 96.1717 17.7712L100.795 17.6409C100.777 16.0974 98.8125 12.8013 93.1091 12.8669C93.032 12.8678 92.9549 12.8687 92.8779 12.8696C88.8683 12.7613 83.8055 14.9035 83.8481 18.6076C83.8827 21.6173 87.9765 22.342 91.7628 23.1474C94.2353 23.6592 95.395 23.9546 95.4074 25.035C95.4198 26.1154 93.8084 26.7514 92.6514 26.6875C90.4163 26.7132 89.2567 26.4179 88.7712 24.4167C86.1507 24.4469 86.8435 24.3617 84.3001 24.391C84.5659 27.398 87.1306 29.2208 92.1403 29.1632C97.1501 29.1056 101.373 27.6677 101.326 23.5777C101.125 19.4894 93.4104 18.9607 93.1792 18.9634Z" fill="white"/>
<path d="M79.7656 12.1714L79.7976 14.9496L81.8015 14.9265C81.8821 15.2343 81.9734 16.4682 80.9714 16.4797L80.9785 17.097C81.3639 17.0926 81.6722 17.0891 81.9016 16.9321C82.7459 16.6136 83.3536 15.8348 83.42 14.9079L83.388 12.1298L81.8466 12.1475L79.7656 12.1714Z" fill="white"/>
<path d="M61.9374 23.645L56.5075 13.9826L49.4168 14.0642L49.3398 14.0651L49.4195 14.2957L58.3027 29.321L62.4646 29.2731L63.6207 29.2598L71.4587 13.7334L66.6031 13.7893L61.9374 23.645Z" fill="white"/>
<path d="M78.3182 13.6545L72.1523 13.7255L72.3299 29.1596L78.4957 29.0886L78.3182 13.6545Z" fill="white"/>
<path d="M98.9848 7.70536L98.9457 4.30985L101.412 4.28148L103.995 7.64772L105.228 7.63353L102.489 4.11472C103.874 3.86725 104.866 3.00684 104.849 1.5406C104.844 1.07758 104.762 0.692613 104.528 0.386591L103.294 0.40078C103.683 0.705028 103.842 1.08911 103.848 1.6293C103.862 2.78686 102.944 3.41487 101.634 3.42994L98.936 3.46098L98.9005 0.374155L97.9756 0.384796L98.0599 7.716L98.9848 7.70536Z" fill="#565656"/>
<path d="M101.188 11.6162C105.581 11.5657 109.086 7.97505 109.035 3.57633C109.021 2.3416 108.7 1.26476 108.225 0.189688L107.146 0.202103C107.697 1.19911 108.019 2.35312 108.033 3.58785C108.078 7.44638 105.03 10.5687 101.177 10.613C97.323 10.6574 94.2045 7.606 94.1602 3.74747C94.1459 2.51274 94.4409 1.35164 94.9689 0.342212L93.8899 0.354627C93.439 1.36317 93.144 2.52427 93.1582 3.759C93.2088 8.15772 96.795 11.6668 101.188 11.6162Z" fill="#565656"/>
</g>
<defs>
<clipPath id="clip0_1120_416">
<rect width="115" height="47" fill="white" transform="translate(0.09375 1.51099) rotate(-0.659194)"/>
</clipPath>
</defs>
</svg>
