<svg width="108" height="54" viewBox="0 0 108 54" fill="none" xmlns="http://www.w3.org/2000/svg">
<g clip-path="url(#clip0_1120_287)">
<path d="M25.7769 1.45904L0.0985556 1.75449C-0.649968 6.19494 3.64982 7.88992 3.64982 7.88992L31.0682 7.57445L25.7769 1.45904Z" fill="#444444"/>
<path d="M33.4044 10.3293L7.72609 10.6247C6.93054 15.0657 11.2303 16.7607 11.2303 16.7607L38.6487 16.4452L33.4044 10.3293Z" fill="#444444"/>
<path d="M106.903 0.525626L81.2252 0.821071L76.0759 7.05661L103.494 6.74114C103.494 6.74114 107.754 4.94768 106.903 0.525626Z" fill="#444444"/>
<path d="M73.8033 9.86445L68.6541 16.1L96.1195 15.784C96.1195 15.784 100.426 13.99 99.5286 9.56847L73.8033 9.86445Z" fill="#444444"/>
<path d="M66.4285 18.9073L64.1555 21.668C63.5371 21.0622 62.4429 19.9904 61.7255 18.9614L44.1834 19.1632C44.1029 20.3428 43.9272 21.4292 43.75 22.3742L40.9854 19.2L15.3071 19.4955C14.5115 23.9365 18.8583 25.6309 18.8583 25.6309L88.6977 24.8273C88.6977 24.8273 93.0043 23.0333 92.1068 18.6118L66.4285 18.9073Z" fill="#444444"/>
<path d="M60.5649 16.193L58.4245 10.0414L44.2686 10.2043C44.327 11.1937 44.3843 12.0888 44.3946 12.9845C44.4076 14.1159 44.3736 15.2478 44.3401 16.4269L60.5654 16.2402L60.5649 16.193Z" fill="#444444"/>
<path d="M65.9478 5.75871C65.9478 5.75871 65.246 1.995 60.9029 0.630555L46.0885 0.801004C44.6583 3.22197 44.2627 5.63103 44.1946 7.89488L59.6204 7.7174C59.8382 6.20618 60.069 5.82635 65.9478 5.75871Z" fill="#444444"/>
<path d="M58.2365 34.6073L59.7415 34.59L58.9673 32.713L58.2365 34.6073Z" fill="#444444"/>
<path d="M44.6437 30.5204C42.5274 30.5448 40.7571 32.0267 39.8955 34.8183L48.7371 34.7166C48.4705 31.9851 47.6066 30.4863 44.6437 30.5204Z" fill="#444444"/>
<path d="M23.167 28.1273L23.1925 30.3429C23.2223 32.9357 25.3155 34.9861 27.9021 34.9563L37.3551 34.8475C38.5832 31.2031 41.5309 29.849 44.2586 29.8176C44.87 29.8106 45.4354 29.8984 45.9074 30.0344C49.2541 30.656 49.3854 29.8058 49.3838 29.6644L49.4011 31.1729L49.4418 34.7085L57.2958 34.6181L59.5795 28.6984L61.9988 34.564L79.8701 34.3584C82.4568 34.3286 84.5022 32.2306 84.4724 29.6378L84.4469 27.4222L23.167 28.1273Z" fill="#444444"/>
<path d="M39.4239 38.7841C39.4494 40.9997 39.7506 42.6464 40.235 43.8667L47.9949 43.7774L47.9607 40.8075L46.6439 40.8227L46.6369 40.2098L51.8101 40.1503L51.8172 40.7631L50.3593 40.7799L50.3934 43.7498L53.7796 43.7108L56.4752 36.7963L41.99 36.963L39.4974 36.9917C39.4569 37.5579 39.4163 38.1241 39.4239 38.7841Z" fill="#444444"/>
<path d="M55.6326 41.285L62.4519 41.2065L60.6132 36.7487L57.3682 36.786L55.6326 41.285Z" fill="#444444"/>
<path d="M54.7194 43.7L63.4669 43.5994L62.6933 41.7695L55.4037 41.8534L54.7194 43.7Z" fill="#444444"/>
<path d="M73.7348 36.5977L69.7843 36.6432L65.8809 36.6881L62.918 36.7222L65.7719 43.5729L69.017 43.5355L69.8635 43.5258L73.814 43.4803C75.7319 42.5625 77.073 40.5669 77.0465 38.2569L77.0269 36.5599L76.7918 36.5626L73.7348 36.5977Z" fill="#444444"/>
<path d="M36.9106 37.0214L34.1358 37.0534L31.0789 37.0885L30.8438 37.0912L30.8633 38.7883C30.8899 41.0982 32.2765 43.0625 34.215 43.9359L38.1185 43.891C37.3508 42.5797 36.861 40.8881 36.8372 38.8139C36.7825 38.1544 36.8231 37.5882 36.9106 37.0214Z" fill="#444444"/>
<path d="M47.078 45.9096L41.7637 45.9707C42.6183 46.6681 43.7033 46.9385 44.832 46.9255C45.7726 46.9147 46.5207 46.5289 47.078 45.9096Z" fill="#444444"/>
<path d="M66.5955 45.685L66.9344 46.5298L68.6275 46.5103L68.6346 47.1231L62.4737 47.194L62.4666 46.5812L64.677 46.5557L64.338 45.711L54.2266 45.8273L53.8504 45.8317L53.5309 46.684L55.0359 46.6667L55.043 47.2795L51.1395 47.3244L51.1324 46.7116L52.5903 46.6948L52.9098 45.8425L50.3702 45.8717L50.3897 47.5688C50.3897 47.5688 49.662 45.6441 47.0895 46.8995C46.343 47.4267 45.4527 47.7199 44.418 47.7318C42.9601 47.7485 41.2135 47.2029 39.7885 45.9934L38.2365 46.0113C38.2392 46.247 38.1949 46.4833 38.1976 46.719C38.2285 49.406 39.76 51.6986 41.937 52.8522L53.8355 52.7153L54.2588 52.7105L66.1573 52.5736C68.3071 51.3701 69.7855 49.0429 69.7546 46.3559C69.7519 46.1202 69.7492 45.8845 69.6995 45.6493L66.5955 45.685Z" fill="#444444"/>
</g>
<defs>
<clipPath id="clip0_1120_287">
<rect width="107" height="52" fill="white" transform="translate(0 1.3313) rotate(-0.659194)"/>
</clipPath>
</defs>
</svg>
