<svg width="131" height="65" viewBox="0 0 131 65" fill="none" xmlns="http://www.w3.org/2000/svg">
<path fill-rule="evenodd" clip-rule="evenodd" d="M43.8161 53.8041L43.8136 53.581L44.3167 53.5752L44.2905 51.2941L43.7873 51.2998L43.7842 51.0271L45.6961 51.0051L45.6992 51.2778L45.1961 51.2836L45.2223 53.5648L45.6248 53.5601C46.6311 53.5486 46.9299 53.2723 46.9216 52.5533L47.1983 52.5501L47.2123 53.7651C47.2131 53.8394 43.8161 53.8041 43.8161 53.8041Z" fill="#2B2B2B"/>
<path fill-rule="evenodd" clip-rule="evenodd" d="M53.3255 53.7692C52.3696 53.7802 51.4562 53.1211 51.4471 52.3277C51.4382 51.559 52.2095 50.8062 53.2913 50.7938C54.4233 50.7807 55.2366 51.4905 55.2458 52.284C55.2297 53.0777 54.4576 53.7561 53.3255 53.7692ZM53.8996 51.1835C53.7727 51.0858 53.6217 51.0875 53.2696 51.0916C53.0935 51.0936 52.867 51.0962 52.7172 51.1971C52.4934 51.4229 52.3948 51.5976 52.403 52.3167C52.4122 53.1101 52.5139 53.2081 52.7424 53.3791C52.9196 53.4763 53.146 53.4737 53.2969 53.4719C53.6491 53.4679 53.8001 53.4661 53.9247 53.3655C54.1994 53.1887 54.3241 53.0881 54.315 52.2947C54.3067 51.5756 54.2041 51.4032 53.8996 51.1835Z" fill="#2B2B2B"/>
<path fill-rule="evenodd" clip-rule="evenodd" d="M63.2588 51.0757L63.2885 53.6544L62.7602 53.6605L60.24 51.1105L60.2663 53.3916L60.7946 53.3855L60.7971 53.6087L59.489 53.6237L59.4864 53.4006L59.9392 53.3954L59.913 51.1142L59.4602 51.1194L59.457 50.8467L61.1425 50.8273L62.9755 52.6909L62.957 51.0792L62.3532 51.0861L62.3501 50.8134L63.7588 50.7972L63.762 51.0699L63.2588 51.0757Z" fill="#2B2B2B"/>
<path fill-rule="evenodd" clip-rule="evenodd" d="M77.9293 53.4861C76.8979 53.4979 75.9845 52.8389 75.9754 52.0455C75.9666 51.2768 76.763 50.5237 77.8951 50.5107C78.9768 50.4982 79.8907 51.2069 79.8999 52.0003C79.909 52.7937 79.0111 53.4736 77.9293 53.4861ZM78.4782 50.9007C78.4268 50.8021 78.2004 50.8047 77.9237 50.8079C77.6972 50.8105 77.5211 50.8126 77.4217 50.9129C77.1475 51.1392 77.0237 51.3142 77.032 52.0333C77.0411 52.8267 77.1429 52.9248 77.4468 53.0948C77.5485 53.1929 77.7246 53.1908 77.951 53.1882C78.2278 53.1851 78.4542 53.1824 78.5034 53.0827C78.8535 52.9051 78.953 52.8047 78.9439 52.0113C78.9356 51.2922 78.8079 51.1201 78.4782 50.9007Z" fill="#2B2B2B"/>
<path fill-rule="evenodd" clip-rule="evenodd" d="M87.9366 50.792L87.9662 53.3707L87.5637 53.3753L84.9178 50.8268L84.944 53.1079L85.4723 53.1018L85.4749 53.325L84.1667 53.34L84.1641 53.1169L84.6673 53.1111L84.641 50.8299L84.1379 50.8357L84.1348 50.563L85.8203 50.5436L87.6532 52.4072L87.6347 50.7955L87.0309 50.8024L87.0278 50.5297L88.4366 50.5135L88.4397 50.7862L87.9366 50.792Z" fill="#2B2B2B"/>
<path fill-rule="evenodd" clip-rule="evenodd" d="M69.6777 53.5065L67.9167 53.5268L67.9141 53.3036L68.367 53.2984L68.3407 51.0173L67.8879 51.0225L67.8848 50.7498L69.6457 50.7295C70.7778 50.7165 71.5899 51.3271 71.5988 52.0957C71.5827 52.8895 70.8097 53.4935 69.6777 53.5065ZM70.2792 51.119C70.1772 50.9962 70.0011 50.9982 69.6489 51.0022L69.2464 51.0069L69.2726 53.288L69.6751 53.2834C70.0273 53.2793 70.1771 53.1784 70.3015 53.053C70.5762 52.8762 70.702 52.8748 70.6931 52.1061C70.6608 51.4866 70.5585 51.339 70.2792 51.119Z" fill="#2B2B2B"/>
<path fill-rule="evenodd" clip-rule="evenodd" d="M59.1499 43.8075L50.7224 43.9045L50.7178 43.5078L52.9316 43.4823L52.8386 35.3991L50.6248 35.4246L50.6191 34.9287L58.141 34.8422C60.5812 34.8141 62.4002 35.4627 62.4176 36.9752C62.4324 38.2645 60.9056 38.9517 58.9937 38.9737C61.3081 38.947 63.3561 39.8162 63.374 41.3783C63.388 42.5932 61.9675 43.7751 59.1499 43.8075ZM57.2411 35.3485L55.4298 35.3693L55.4697 38.8406L57.7841 38.814C59.0923 38.7989 60.096 38.5642 60.078 37.0021C60.0606 35.4896 59.0524 35.3276 57.2411 35.3485ZM57.6887 39.2615L55.4749 39.2869L55.5231 43.4773L57.8375 43.4506C59.2463 43.4344 60.7274 43.1446 60.7074 41.409C60.6849 39.4502 59.4999 39.2406 57.6887 39.2615Z" fill="#2B2B2B"/>
<path fill-rule="evenodd" clip-rule="evenodd" d="M29.3413 35.6698L29.4049 41.199C29.4311 43.4802 27.5049 44.4447 24.4609 44.4797C22.2471 44.5052 18.7941 43.9745 18.7647 41.4207L18.7 35.7922L16.4862 35.8177L16.4805 35.3218L23.5998 35.2399L23.6055 35.7358L21.2911 35.7624L21.3559 41.3908C21.381 43.5728 23.1954 43.8247 24.9061 43.805C27.0444 43.7804 28.9234 43.0893 28.9018 41.2048L28.8381 35.6756L26.574 35.7016L26.5683 35.2057L31.65 35.1472L31.6557 35.6431L29.3413 35.6698Z" fill="#2B2B2B"/>
<path fill-rule="evenodd" clip-rule="evenodd" d="M46.9773 44.2454C45.5182 44.2622 43.6992 43.6136 43.6775 41.7291L43.671 41.1589C43.6581 40.0431 42.621 39.5591 41.1619 39.5758L38.5456 39.6059L38.5924 43.6723L40.6804 43.6483L40.685 44.045L33.7166 44.1252L33.712 43.7285L35.9258 43.703L35.8328 35.6198L33.619 35.6453L33.6133 35.1494L41.3616 35.0603C44.0785 35.029 45.6742 35.953 45.689 37.2423C45.703 38.4573 44.3045 39.3661 42.3171 39.389C45.1598 39.3563 46.3556 40.508 46.3704 41.7973L46.3819 42.7891C46.3884 43.3594 46.6694 43.7282 47.399 43.7198C47.8518 43.7146 48.202 43.537 48.3504 43.3121L48.682 43.705C48.3338 44.0562 47.8326 44.2356 46.9773 44.2454ZM40.3607 35.5429L38.4991 35.5644L38.5396 39.0853L40.527 39.0624C42.0616 39.0447 43.1402 38.7595 43.1228 37.247C43.0822 35.9084 42.2978 35.5207 40.3607 35.5429Z" fill="#2B2B2B"/>
<path fill-rule="evenodd" clip-rule="evenodd" d="M113.14 43.484C111.605 43.5016 109.912 42.8516 109.89 40.9671L109.884 40.3968C109.871 39.2811 108.783 38.7976 107.249 38.8153L104.658 38.8451L104.704 42.9115L106.792 42.8874L106.797 43.2842L99.9041 43.3635L99.8995 42.9668L102.113 42.9413L102.02 34.8581L99.8065 34.8836L99.8008 34.3877L107.599 34.298C110.216 34.2679 111.912 35.1907 111.927 36.48C111.941 37.695 110.492 38.6044 108.454 38.6278C111.398 38.594 112.493 39.7469 112.508 41.0362L112.519 42.028C112.526 42.5983 112.932 42.9656 113.561 42.9583C114.064 42.9526 114.339 42.7758 114.689 42.5486L114.869 42.9433C114.446 43.2953 113.945 43.4747 113.14 43.484ZM106.548 34.7812L104.636 34.8032L104.677 38.3241L106.664 38.3012C108.199 38.2836 109.378 37.9972 109.361 36.4847C109.32 35.1461 108.41 34.7598 106.548 34.7812Z" fill="#2B2B2B"/>
<path fill-rule="evenodd" clip-rule="evenodd" d="M96.1582 43.6793C94.6991 43.6961 92.8801 43.0474 92.8584 41.163L92.8519 40.5927C92.839 39.477 91.7013 38.9941 90.217 39.0112L87.6762 39.0404L87.723 43.1068L89.8613 43.0822L89.8659 43.4789L82.9226 43.5588L82.918 43.1621L85.1318 43.1366L85.0388 35.0534L82.825 35.0789L82.8193 34.583L90.5676 34.4939C93.2845 34.4626 94.8803 35.3866 94.8951 36.6759C94.9091 37.8909 93.3848 38.8011 91.5232 38.8226C94.2904 38.7907 95.5617 39.9416 95.5765 41.2309L95.5879 42.2227C95.5945 42.793 95.8755 43.1618 96.5547 43.154C97.0578 43.1482 97.408 42.9705 97.5564 42.7457L97.7874 43.1398C97.414 43.4912 96.9632 43.67 96.1582 43.6793ZM89.5668 34.9765L87.6549 34.9985L87.6954 38.5194L89.7331 38.496C91.1921 38.4792 92.3211 38.1934 92.3037 36.6809C92.2883 35.342 91.378 34.9557 89.5668 34.9765Z" fill="#2B2B2B"/>
<path fill-rule="evenodd" clip-rule="evenodd" d="M66.3943 43.7243L66.3897 43.3276L68.6538 43.3015L68.5608 35.2184L66.2967 35.2444L66.291 34.7485L78.4166 34.609L78.4494 37.4604L77.9462 37.4662C77.9328 36.3009 77.0135 35.1211 74.7494 35.1472L71.1268 35.1889L71.1685 38.8089L72.5772 38.7927C74.2627 38.7733 74.7808 37.8746 74.7719 37.106L75.2751 37.1002L75.3193 40.9434L74.8161 40.9492C74.8073 40.1806 74.2939 39.2937 72.5832 39.3134L71.1745 39.3296L71.2201 43.2968L74.8678 43.2548C77.8112 43.221 78.8781 41.9192 78.8621 40.5307L79.3652 40.5249L79.4006 43.5995L66.3946 43.7491L66.3943 43.7243Z" fill="#2B2B2B"/>
<path fill-rule="evenodd" clip-rule="evenodd" d="M128.383 34.5302L124.363 39.3377L124.401 42.685L126.665 42.659L126.67 43.0309L119.55 43.1128L119.546 42.7409L121.861 42.7143L121.821 39.243L117.566 34.6547L115.025 34.6839L115.02 34.188L122.667 34.1L122.673 34.5959L120.358 34.6225L124.254 38.595L127.83 34.5366L125.616 34.562L125.611 34.0661L130.415 34.0108L130.421 34.5067L128.383 34.5302Z" fill="#2B2B2B"/>
<path fill-rule="evenodd" clip-rule="evenodd" d="M17.443 64.2748L17.8204 64.2705L17.785 61.1959L17.9108 61.1945L19.0279 64.2566L19.4052 64.2523L20.6277 61.1632L20.6631 64.2378L21.1159 64.2326L21.0743 60.6125L20.395 60.6203L19.2477 63.6837L18.0806 60.647L17.4014 60.6548L17.443 64.2748Z" fill="#2B2B2B"/>
<path fill-rule="evenodd" clip-rule="evenodd" d="M23.2545 64.208L25.7451 64.1793L25.7394 63.6834L23.6513 63.7074L23.6376 62.5173L25.625 62.4944L25.6208 62.1225L23.6334 62.1453L23.6197 60.9552L25.7077 60.9312L25.7034 60.5592L23.2129 60.5879L23.2545 64.208Z" fill="#2B2B2B"/>
<path fill-rule="evenodd" clip-rule="evenodd" d="M27.6823 64.1572L28.1854 64.1514L28.1515 61.2008L30.047 64.13L30.5753 64.1239L30.5337 60.5038L30.1311 60.5085L30.1651 63.4591L28.1438 60.5313L27.6406 60.5371L27.6823 64.1572Z" fill="#2B2B2B"/>
<path fill-rule="evenodd" clip-rule="evenodd" d="M32.8409 59.9564L33.2434 59.9518C33.2465 60.2245 33.1253 60.6227 32.8486 60.6259L32.8517 60.8986C33.3549 60.8928 33.5258 60.4445 33.5201 59.9486L33.5113 59.1799L32.832 59.1877L32.8409 59.9564Z" fill="#2B2B2B"/>
<path fill-rule="evenodd" clip-rule="evenodd" d="M38.4687 61.3549C38.4596 60.5614 37.8779 60.2953 37.0477 60.3049C36.4691 60.3115 35.7427 60.5927 35.7518 61.3861C35.7589 62.006 36.3896 62.1475 36.9948 62.2645C37.5759 62.481 38.1808 62.5733 38.186 63.0196C38.1917 63.5155 37.69 63.6453 37.1617 63.6513C36.6585 63.6571 36.1534 63.4893 36.1451 62.7703L35.6923 62.7755C35.7026 63.6681 36.3875 64.1562 37.1674 64.1472C37.8969 64.1388 38.6974 63.7329 38.6885 62.9642C38.6803 62.2452 38.0493 62.0788 37.4193 61.9869C36.8633 61.7701 36.2343 61.7773 36.2292 61.331C36.2235 60.8351 36.6246 60.7065 37.0271 60.7019C37.5302 60.6961 37.9347 60.865 37.9404 61.3609L38.4687 61.3549Z" fill="#2B2B2B"/>
<path fill-rule="evenodd" clip-rule="evenodd" d="M44.0341 63.9689L44.5372 63.9631L44.4999 60.715L45.7074 60.7011L45.7031 60.3292L42.7598 60.363L42.764 60.735L43.9967 60.7208L44.0341 63.9689Z" fill="#2B2B2B"/>
<path fill-rule="evenodd" clip-rule="evenodd" d="M46.5241 63.9404L47.0272 63.9346L47.4163 62.7646L49.0012 62.7464L49.4171 63.9071L49.9202 63.9013L48.5201 60.2969L47.8912 60.3041L46.5241 63.9404ZM48.1974 60.6726L48.8457 62.3514L47.6633 62.365L48.1974 60.6726Z" fill="#2B2B2B"/>
<path fill-rule="evenodd" clip-rule="evenodd" d="M51.6813 63.8808L52.1341 63.8756L52.0925 60.2555L51.6396 60.2607L51.6813 63.8808Z" fill="#2B2B2B"/>
<path fill-rule="evenodd" clip-rule="evenodd" d="M54.2721 63.851L56.662 63.8235L56.6563 63.3276L54.7192 63.3499L54.6833 60.2257L54.2305 60.231L54.2721 63.851Z" fill="#2B2B2B"/>
<path fill-rule="evenodd" clip-rule="evenodd" d="M58.1754 61.8968C58.1871 62.9134 58.7771 63.8986 60.0098 63.8844C61.1922 63.8708 61.8097 62.8717 61.798 61.8552C61.7871 60.9129 61.1479 60.0276 59.9656 60.0412C58.7077 60.0556 58.1646 60.9546 58.1754 61.8968ZM58.6785 61.891C58.6708 61.2216 59.0645 60.4483 59.9701 60.4379C60.8758 60.4275 61.2871 61.1915 61.2948 61.8609C61.3045 62.704 60.9097 63.3781 60.0041 63.3885C59.0985 63.3989 58.6882 62.7341 58.6785 61.891Z" fill="#2B2B2B"/>
<path fill-rule="evenodd" clip-rule="evenodd" d="M64.0608 61.7796L64.046 60.4902L65.3541 60.4752C65.8069 60.47 65.985 60.6415 65.9896 61.0382C65.9953 61.5341 65.5954 61.7619 65.1929 61.7666L64.0608 61.7796ZM63.6305 63.7436L64.0833 63.7384L64.0654 62.1763L65.3232 62.1618C65.8263 62.156 65.8798 62.4282 66.0101 62.8235C66.0139 63.1458 65.8926 63.544 66.121 63.7149L66.6242 63.7092C66.3946 63.439 66.5158 63.0408 66.3855 62.6456C66.3818 62.3232 66.2777 62.0269 65.8741 61.9323C66.2746 61.7541 66.4973 61.4292 66.4922 60.9829C66.485 60.363 66.0794 60.0949 65.3498 60.1033L63.5889 60.1235L63.6305 63.7436Z" fill="#2B2B2B"/>
<path fill-rule="evenodd" clip-rule="evenodd" d="M68.486 63.6877L71.0268 63.6585L71.0211 63.1626L68.9834 63.186L68.9697 61.9958L70.9068 61.9736L70.9025 61.6016L68.9654 61.6239L68.9517 60.4338L70.9894 60.4103L70.9852 60.0384L68.4443 60.0676L68.486 63.6877Z" fill="#2B2B2B"/>
<path fill-rule="evenodd" clip-rule="evenodd" d="M72.9137 63.6367L74.2219 63.6216C75.4546 63.6074 76.0255 62.9313 76.0106 61.642C75.9967 60.427 75.3123 59.9885 74.1802 60.0016L72.8721 60.0166L72.9137 63.6367ZM73.3795 60.3827L74.1845 60.3735C75.0901 60.3631 75.5487 60.8537 75.5584 61.6968C75.5743 63.0853 74.6687 63.0957 74.2159 63.1009L73.4109 63.1102L73.3795 60.3827Z" fill="#2B2B2B"/>
<path fill-rule="evenodd" clip-rule="evenodd" d="M83.525 60.9355C83.4658 60.1675 82.8323 59.778 82.0525 59.787C80.9204 59.8 80.3509 60.6001 80.3629 61.6415C80.3757 62.7572 80.8388 63.6446 82.0967 63.6302C83.0023 63.6198 83.5486 62.9935 83.6641 62.0994L83.161 62.1052C83.0675 62.7263 82.7699 63.1017 82.0907 63.1095C81.185 63.1199 80.8251 62.4545 80.8154 61.6115C80.8066 60.8428 81.1511 60.1693 82.0567 60.1589C82.5599 60.1531 82.9644 60.322 83.0215 60.9165L83.5247 60.9107L83.525 60.9355Z" fill="#2B2B2B"/>
<path fill-rule="evenodd" clip-rule="evenodd" d="M85.5924 63.4907L87.9572 63.4635L87.9515 62.9676L86.0899 62.989L86.0539 59.8648L85.5508 59.8706L85.5924 63.4907Z" fill="#2B2B2B"/>
<path fill-rule="evenodd" clip-rule="evenodd" d="M89.4703 61.5367C89.482 62.5533 90.1224 63.5379 91.3047 63.5243C92.4871 63.5107 93.1046 62.5116 93.0929 61.495C93.0821 60.5528 92.4429 59.6675 91.2605 59.6811C90.0781 59.6947 89.4595 60.5945 89.4703 61.5367ZM89.9735 61.5309C89.9658 60.8615 90.3594 60.0882 91.2651 60.0778C92.1707 60.0674 92.5821 60.8314 92.5898 61.5008C92.5995 62.3439 92.2047 63.018 91.299 63.0284C90.3934 63.0388 89.9832 62.374 89.9735 61.5309Z" fill="#2B2B2B"/>
<path fill-rule="evenodd" clip-rule="evenodd" d="M95.8312 63.3731L96.3344 63.3673L96.297 60.1192L97.4794 60.1055L97.4751 59.7336L94.4814 59.7681L94.4857 60.14L95.7939 60.1249L95.8312 63.3731Z" fill="#2B2B2B"/>
<path fill-rule="evenodd" clip-rule="evenodd" d="M99.2272 63.3339L99.7303 63.3281L99.7109 61.6421L101.648 61.6198L101.667 63.3059L102.12 63.3006L102.079 59.6806L101.626 59.6858L101.644 61.2479L99.7067 61.2702L99.6887 59.7081L99.1855 59.7139L99.2272 63.3339Z" fill="#2B2B2B"/>
<path fill-rule="evenodd" clip-rule="evenodd" d="M104.258 63.2761L104.711 63.2709L104.67 59.6508L104.217 59.656L104.258 63.2761Z" fill="#2B2B2B"/>
<path fill-rule="evenodd" clip-rule="evenodd" d="M106.876 63.246L107.379 63.2403L107.345 60.2897L109.24 63.2188L109.869 63.2116L109.828 59.5915L109.325 59.5973L109.358 62.5479L107.337 59.6202L106.834 59.626L106.876 63.246Z" fill="#2B2B2B"/>
<path fill-rule="evenodd" clip-rule="evenodd" d="M114.799 63.1547L115.076 63.1515L115.053 61.1927L113.469 61.2109L113.473 61.6076L114.655 61.594C114.663 62.2635 114.266 62.764 113.487 62.773C112.682 62.7823 112.171 62.1186 112.162 61.3995C112.153 60.6061 112.547 59.8328 113.453 59.8224C114.006 59.816 114.411 59.985 114.543 60.5786L115.046 60.5728C114.91 59.6816 114.228 59.4167 113.448 59.4257C112.19 59.4402 111.647 60.3391 111.659 61.4053C111.67 62.298 112.36 63.2819 113.492 63.2689C113.895 63.2643 114.395 63.0353 114.667 62.6354L114.799 63.1547Z" fill="#2B2B2B"/>
<path fill-rule="evenodd" clip-rule="evenodd" d="M52.4302 2.14963C52.4302 2.14963 55.5669 -0.763056 62.599 2.5038C62.3585 3.47369 61.6384 4.30032 61.6384 4.30032C61.6384 4.30032 59.1853 3.21262 58.565 3.96371C57.9192 4.69029 56.7608 4.60442 56.7608 4.60442C55.6222 4.04716 52.4302 2.14963 52.4302 2.14963Z" fill="#2B2B2B"/>
<path fill-rule="evenodd" clip-rule="evenodd" d="M62.3701 4.44051C62.3701 4.44051 62.361 3.64707 63.7698 3.63086C63.1892 3.46396 62.7112 3.46945 62.7112 3.46945C63.0574 2.94471 63.1295 2.6463 64.3621 2.63212C65.5948 2.61794 66.1368 3.80201 66.1368 3.80201C65.8386 4.12782 65.8978 4.89589 66.1019 5.14152C65.2949 4.97722 63.7752 4.10197 63.6534 4.45054C63.0242 4.43298 62.3701 4.44051 62.3701 4.44051Z" fill="#2B2B2B"/>
<path fill-rule="evenodd" clip-rule="evenodd" d="M66.4356 3.60031C66.4356 3.60031 70.0484 4.89785 74.1718 4.65202C78.2955 4.43099 80.822 7.5265 80.822 7.5265C80.822 7.5265 82.4211 8.74801 84.6907 9.19306C82.9297 9.21332 82.7542 9.26494 82.3277 9.36904C81.9006 9.42355 80.4855 8.89427 79.5221 8.2606C78.5336 7.62722 73.7255 7.40976 73.7255 7.40976C70.0023 7.4526 70.0023 7.4526 70.0023 7.4526C70.0023 7.4526 67.31 7.43398 66.7337 5.45675C66.2077 3.47894 66.4356 3.60031 66.4356 3.60031Z" fill="#2B2B2B"/>
<path fill-rule="evenodd" clip-rule="evenodd" d="M83.5661 9.77645C83.5661 9.77645 85.1081 10.4035 85.4708 11.3168C86.6838 11.774 87.9184 11.9334 88.3238 12.1767C88.7795 12.4195 89.3086 12.4878 89.7877 12.5815C89.4084 12.4122 89.2775 11.9674 88.8978 11.7734C88.2138 11.3597 87.5891 11.7388 86.9022 11.0772C86.4185 10.5868 86.1086 9.89599 85.3522 9.7559C84.8728 9.63743 84.0915 9.52243 83.5661 9.77645Z" fill="#2B2B2B"/>
<path fill-rule="evenodd" clip-rule="evenodd" d="M63.5883 5.39374C62.3053 5.4085 62.3053 5.4085 62.3053 5.4085C62.3053 5.4085 61.97 4.69321 63.8568 4.6715C63.5835 4.97223 63.4337 5.07314 63.5883 5.39374Z" fill="#2B2B2B"/>
<path fill-rule="evenodd" clip-rule="evenodd" d="M65.4727 5.09914C65.4727 5.09914 64.0373 4.99166 63.9135 5.16667C63.7898 5.34169 63.9673 5.46363 63.9673 5.46363C65.4018 5.49673 65.4018 5.49673 65.4018 5.49673L65.4727 5.09914Z" fill="#2B2B2B"/>
<path fill-rule="evenodd" clip-rule="evenodd" d="M65.7571 5.83979C65.7571 5.83979 66.7849 5.50559 67.6587 7.10742C67.6161 7.77746 66.9975 8.67732 66.8717 8.67876C66.7459 8.68021 66.0469 9.15942 65.8005 9.60862C65.7914 8.81518 65.964 8.51562 66.2611 8.09063C66.5581 7.66564 66.4947 6.52565 66.3669 6.35354C66.2391 6.18142 65.7571 5.83979 65.7571 5.83979Z" fill="#2B2B2B"/>
<path fill-rule="evenodd" clip-rule="evenodd" d="M64.785 2.18096C64.785 2.18096 66.3939 2.06325 67.0825 2.87367C67.7457 3.65958 68.3684 3.10686 68.3684 3.10686C68.3684 3.10686 68.4607 2.38665 67.8776 1.99659C68.6891 2.55761 69.1242 3.19736 69.1763 3.34555C69.2789 3.51795 70.2666 4.07695 70.2497 2.61405C70.8861 3.25148 70.9875 3.32471 71.0656 3.54699C71.119 3.81916 71.9589 4.65264 72.6813 4.02437C73.4034 3.37131 73.4698 2.577 71.852 1.92606C72.1127 2.7166 72.0195 3.36243 71.282 2.67656C70.5187 1.9414 69.8106 1.62717 68.8332 1.96079C67.7221 1.6016 66.2358 1.44512 64.785 2.18096Z" fill="#2B2B2B"/>
<path fill-rule="evenodd" clip-rule="evenodd" d="M65.4015 9.93581C65.4015 9.93581 65.8571 10.1786 66.2754 9.3554C66.7534 9.3499 67.6808 9.04165 67.7162 7.75174C67.9806 8.86461 68 10.5507 67.9274 10.7995C67.88 11.048 67.88 11.048 67.88 11.048C67.88 11.048 68.4857 11.2146 68.7061 10.6913C69.3642 11.0309 79.4422 16.6186 79.4422 16.6186C79.2689 16.8686 79.2689 16.8686 79.2689 16.8686C68.1618 11.4911 68.1618 11.4911 68.1618 11.4911C68.1618 11.4911 67.279 11.3029 66.8765 11.3075C67.3525 11.1285 67.3477 10.707 67.3477 10.707C67.3477 10.707 66.2699 11.0665 66.2196 11.0671C66.2639 10.5458 66.2093 10.1745 65.9578 10.1774C65.7062 10.1803 66.1441 11.068 65.3894 11.0767C64.7099 11.0597 65.3577 10.5067 65.4015 9.93581Z" fill="#2B2B2B"/>
<path fill-rule="evenodd" clip-rule="evenodd" d="M68.1674 9.77996C68.1674 9.77996 68.1534 8.56501 68.1509 8.34185C68.148 8.0939 68.9382 8.97755 69.0705 9.54639C68.6943 9.64991 68.3918 9.60379 68.1674 9.77996Z" fill="#2B2B2B"/>
<path fill-rule="evenodd" clip-rule="evenodd" d="M68.3997 10.2979C68.3997 10.2979 68.7413 9.37648 69.5555 10.1607C70.3442 10.9203 69.8648 10.8018 69.8648 10.8018C69.8648 10.8018 68.6512 10.295 68.3997 10.2979Z" fill="#2B2B2B"/>
<path fill-rule="evenodd" clip-rule="evenodd" d="M50.1075 1.43225L49.9111 1.85608L60.2121 7.14358L60.4597 6.79356L50.1075 1.43225Z" fill="#2B2B2B"/>
<path fill-rule="evenodd" clip-rule="evenodd" d="M47.1475 0.0280762C48.5728 1.44997 48.5728 1.44997 48.5728 1.44997C48.5728 1.44997 49.6091 1.85962 49.5994 1.01659C49.5897 0.173565 48.0065 0.340569 47.1475 0.0280762Z" fill="#2B2B2B"/>
<path fill-rule="evenodd" clip-rule="evenodd" d="M51.9585 7.11465C51.9585 7.11465 50.7055 7.55064 50.5117 6.01538C51.3745 6.65021 51.6798 6.94427 51.9585 7.11465Z" fill="#2B2B2B"/>
<path fill-rule="evenodd" clip-rule="evenodd" d="M50.3828 5.66968C50.3828 5.66968 51.6747 6.42356 52.1046 6.617C51.7699 5.9513 52.8264 5.93914 50.3828 5.66968Z" fill="#2B2B2B"/>
<path fill-rule="evenodd" clip-rule="evenodd" d="M51.8628 7.48759C51.8628 7.48759 51.0341 7.62112 50.9697 8.58899C51.7021 8.82855 52.0563 8.99806 52.0609 9.39478C51.5346 9.57442 51.0275 9.23308 50.8494 9.06154C50.0953 9.11981 48.788 9.20925 48.788 9.20925C48.788 9.20925 50.5561 9.80886 51.4114 9.79902C51.2401 10.2226 50.8891 10.3258 50.8934 10.6977C50.8974 11.0448 50.8619 12.3348 50.8619 12.3348C50.8619 12.3348 51.1603 12.0338 51.114 12.3815C51.0677 12.7292 50.7652 12.6831 50.7652 12.6831C50.7652 12.6831 50.1972 13.6071 50.6534 13.8995C51.0845 14.1921 51.6792 13.3917 51.6792 13.3917C51.6792 13.3917 52.3578 13.3343 52.5591 13.332C52.7352 13.3299 52.8018 12.5604 52.5966 12.2156C52.4165 11.8705 52.6357 11.248 52.6357 11.248C52.8204 11.9899 53.072 11.987 53.2984 11.9844C53.5499 11.9815 54.0534 9.81822 54.0534 9.81822C54.0534 9.81822 54.6629 8.12493 52.8968 7.69888C52.3685 7.70496 52.0918 7.70814 52.0955 8.03048C51.7925 7.93477 51.8628 7.48759 51.8628 7.48759Z" fill="#2B2B2B"/>
<path fill-rule="evenodd" clip-rule="evenodd" d="M52.3868 13.6812C52.3868 13.6812 51.8059 13.4894 51.5097 13.9888C51.9897 14.1569 52.265 14.0297 52.3868 13.6812Z" fill="#2B2B2B"/>
<path fill-rule="evenodd" clip-rule="evenodd" d="M52.783 13.1064C52.783 13.1064 53.3873 13.149 53.4311 12.5782C53.8616 12.8212 54.2435 13.2136 54.0451 13.4638C53.8722 13.7386 52.7973 14.3461 53.5871 15.205C54.4027 16.1131 55.1248 15.4601 55.3512 15.4575C54.6194 15.2675 53.7664 15.4757 54.1346 14.6779C54.4779 13.9052 54.7281 13.7783 54.7281 13.7783C54.4233 13.5339 54.4151 12.8148 54.4151 12.8148C54.4151 12.8148 53.6026 12.1794 52.8731 12.1878C53.0292 12.6324 53.0829 12.9293 52.783 13.1064Z" fill="#2B2B2B"/>
<path fill-rule="evenodd" clip-rule="evenodd" d="M54.4113 10.3597C54.4113 10.3597 54.3679 10.9553 53.9165 11.0845C54.2501 11.6511 54.1277 11.95 54.1277 11.95C54.6063 11.9941 54.5477 11.2757 54.5477 11.2757L54.4113 10.3597Z" fill="#2B2B2B"/>
<path fill-rule="evenodd" clip-rule="evenodd" d="M53.753 7.76359C53.753 7.76359 54.4434 8.72278 54.5286 9.56494C54.5889 10.4322 54.8361 10.0574 54.8361 10.0574C54.8361 10.0574 55.0479 13.1547 55.053 13.601C55.0579 14.0225 55.3598 14.0191 55.3598 14.0191C56.9124 13.3812 58.1256 11.681 59.7057 11.2413C58.9613 9.96031 57.9348 8.21144 57.1766 7.92259C56.4434 7.60865 54.9794 7.20392 53.753 7.76359Z" fill="#2B2B2B"/>
<path fill-rule="evenodd" clip-rule="evenodd" d="M53.5724 7.39367C53.5724 7.39367 53.3237 7.64452 52.7383 7.05609C52.1277 6.46796 52.1294 6.61673 52.1294 6.61673C52.1294 6.61673 52.9061 6.33501 53.0831 6.40737C53.2597 6.45494 53.2686 7.22358 53.5724 7.39367Z" fill="#2B2B2B"/>
<path fill-rule="evenodd" clip-rule="evenodd" d="M54.1239 7.21374C54.1239 7.21374 53.925 7.41442 53.5153 6.79918C53.0802 6.15943 53.0822 6.33299 53.0822 6.33299C53.0822 6.33299 53.7083 6.07781 53.8349 6.15075C53.9619 6.24848 53.9204 7.0177 54.1239 7.21374Z" fill="#2B2B2B"/>
<path fill-rule="evenodd" clip-rule="evenodd" d="M56.7684 7.48081C56.6367 6.96156 56.635 6.81279 56.631 6.46566C56.6273 6.14333 56.4752 6.04588 55.7954 6.00411C55.9506 6.3743 56.0787 6.57121 56.0052 6.74564C55.9823 6.94429 55.8808 6.87106 55.4949 6.13156C55.165 5.88737 54.9652 6.01366 54.9652 6.01366C54.9652 6.01366 55.4011 6.72779 55.4563 7.14873C55.9852 7.19224 56.5909 7.35886 56.7684 7.48081Z" fill="#2B2B2B"/>
<path fill-rule="evenodd" clip-rule="evenodd" d="M53.9845 6.0745C53.9845 6.0745 53.9845 6.0745 54.0097 6.07421C53.9842 6.0497 53.9845 6.0745 53.9845 6.0745Z" fill="#2B2B2B"/>
<path fill-rule="evenodd" clip-rule="evenodd" d="M55.1275 6.92952C55.0755 6.78133 54.9231 6.65909 54.8459 6.51119C54.8188 6.33791 54.8671 6.16377 54.7399 6.04124C54.6381 5.94322 54.161 6.0231 54.0103 6.04964C54.0358 6.07414 54.113 6.22204 54.2187 6.66719C54.2456 6.81567 54.3231 6.98837 54.4254 7.13598C54.5512 7.13454 54.8782 7.13077 55.1046 7.12817C55.1795 7.07771 55.179 7.02812 55.1275 6.92952Z" fill="#2B2B2B"/>
<path fill-rule="evenodd" clip-rule="evenodd" d="M55.1646 14.5419C56.0651 14.0851 56.863 13.456 57.6872 12.9258C58.2866 12.5469 59.1337 11.818 59.8884 11.8093C60.3664 11.8038 60.0728 12.5263 59.5696 12.5321C59.8995 12.7763 60.0264 12.874 59.8261 12.9507C59.6505 13.0024 59.3032 13.4279 58.9238 13.2587C58.5696 13.0892 58.3221 13.4392 58.451 13.7105C58.5796 13.957 58.0307 14.3601 57.3998 14.1938C56.7941 14.0272 56.9273 14.6704 56.9307 14.9679C56.3304 15.2724 55.1703 15.0378 55.1703 15.0378L55.1646 14.5419Z" fill="#2B2B2B"/>
<path fill-rule="evenodd" clip-rule="evenodd" d="M55.0675 14.8408C55.0689 14.9648 54.9446 15.0902 54.7936 15.092C54.6427 15.0937 54.5155 14.9712 54.514 14.8472C54.5126 14.7232 54.6375 14.6474 54.7885 14.6457C54.9391 14.6191 55.0661 14.7169 55.0675 14.8408Z" fill="#2B2B2B"/>
<path fill-rule="evenodd" clip-rule="evenodd" d="M60.2819 13.2679C60.2819 13.2679 58.8831 14.152 58.5838 14.3786C58.2847 14.63 57.4348 15.111 57.2336 15.1133C57.0575 15.1153 58.1183 15.4751 59.0743 15.4641C59.1949 15.0163 58.964 14.6222 60.2819 13.2679Z" fill="#2B2B2B"/>
<path fill-rule="evenodd" clip-rule="evenodd" d="M60.4144 13.7625C60.4144 13.7625 59.6154 14.2924 59.6236 15.0115C60.5061 15.1749 60.5061 15.1749 60.5061 15.1749C60.5061 15.1749 60.9781 14.6487 61.28 14.6452C60.7734 14.3535 60.5456 14.2321 60.4144 13.7625Z" fill="#2B2B2B"/>
<path fill-rule="evenodd" clip-rule="evenodd" d="M60.1343 15.7C60.1343 15.7 60.6592 15.3964 60.9568 15.021C61.2547 14.6704 61.5611 15.0637 61.5611 15.0637C61.5611 15.0637 61.522 16.0313 61.399 16.2807C60.9188 16.0878 60.1343 15.7 60.1343 15.7Z" fill="#2B2B2B"/>
<path fill-rule="evenodd" clip-rule="evenodd" d="M57.0452 7.50255C57.0452 7.50255 57.2119 6.68229 57.0312 6.2876C57.4612 6.48104 57.6404 6.75175 57.6404 6.75175C57.6009 7.69454 57.6009 7.69454 57.6009 7.69454L57.0452 7.50255Z" fill="#2B2B2B"/>
<path fill-rule="evenodd" clip-rule="evenodd" d="M57.5761 7.71947C57.5761 7.71947 58.2622 8.30674 58.34 8.50423C58.7654 8.30095 59.0873 7.85088 59.0858 7.7269C58.8817 7.48127 58.6516 7.16154 58.6516 7.16154C58.6073 7.68281 58.4589 7.9077 58.308 7.90944C58.157 7.91118 58.3214 6.89256 58.3214 6.89256C58.0687 6.79627 57.7406 6.70085 57.7406 6.70085C57.7406 6.70085 57.878 7.716 57.5761 7.71947Z" fill="#2B2B2B"/>
<path fill-rule="evenodd" clip-rule="evenodd" d="M58.6467 8.82315C58.6467 8.82315 58.8502 9.01919 58.9274 9.16709C59.4506 8.7147 59.671 8.1914 59.671 8.1914C59.3411 7.94722 59.3411 7.94722 59.3411 7.94722C59.3411 7.94722 59.0206 8.52126 58.7459 8.69801L58.6467 8.82315Z" fill="#2B2B2B"/>
<path fill-rule="evenodd" clip-rule="evenodd" d="M59.1566 9.43724C59.1566 9.43724 59.7787 8.83492 59.7764 8.63656C60.1328 9.00443 60.1346 9.1532 60.1346 9.1532C60.1346 9.1532 59.6128 9.72957 59.4116 9.73188C59.2355 9.73391 59.1566 9.43724 59.1566 9.43724Z" fill="#2B2B2B"/>
<path fill-rule="evenodd" clip-rule="evenodd" d="M64.7619 11.1334C64.7619 11.1334 64.631 10.6886 64.488 11.3846C64.3196 12.0561 64.1936 12.0327 64.0421 11.9849C64.0458 12.3072 63.424 12.9343 62.4809 14.0611C62.4809 14.0611 62.7327 14.083 62.984 14.0553C63.0089 14.0302 63.034 14.0299 63.0841 14.0045C63.7616 13.848 63.906 13.2759 63.9034 13.0528C64.0764 12.778 64.2496 12.528 64.3977 12.2784C64.518 13.988 62.5123 14.6063 62.1367 14.7594C61.7859 14.8874 61.7956 15.7304 61.7287 16.4752C61.7287 16.4752 62.3076 16.4933 62.6106 16.589C62.6046 16.0683 63.5286 15.4625 63.5286 15.4625C62.7235 15.4718 62.3042 16.1958 62.3042 16.1958C62.3042 16.1958 62.0546 16.3722 62.0274 16.1989C62.0006 16.0505 62.1198 15.4787 62.291 15.0552C64.8971 14.1325 64.7316 12.8697 64.8282 12.5214C64.9746 12.1229 64.7619 11.1334 64.7619 11.1334Z" fill="#2B2B2B"/>
<path fill-rule="evenodd" clip-rule="evenodd" d="M64.221 14.4129C64.221 14.4129 64.5632 13.5411 64.8142 13.4886C65.0898 13.3862 65.3216 11.6725 65.3188 11.4245C65.5941 11.2974 65.8968 11.3683 66.0452 11.1434C66.2281 11.7364 66.2684 13.0503 66.1175 13.052C65.9414 13.054 65.6166 13.2562 65.4694 13.5802C65.3219 13.8795 64.8699 13.9591 64.8699 13.9591C64.8699 13.9591 64.8001 14.4559 64.221 14.4129Z" fill="#2B2B2B"/>
<path fill-rule="evenodd" clip-rule="evenodd" d="M65.0988 14.1797C65.0988 14.1797 65.5991 13.926 65.7729 13.7256C65.9216 13.5255 66.399 13.4704 66.399 13.4704C66.399 13.4704 66.9878 14.3564 67.4424 14.4999C66.8437 14.9532 66.6213 15.3029 66.4001 15.7518C66.2039 16.2005 65.8809 16.5514 65.8809 16.5514C65.4286 16.6062 65.4286 16.6062 65.4286 16.6062C65.4286 16.6062 64.5973 16.5165 64.1499 16.9928C64.0399 16.1758 64.0008 14.9611 64.8529 14.6785C65.7054 14.4207 65.0988 14.1797 65.0988 14.1797Z" fill="#2B2B2B"/>
<path fill-rule="evenodd" clip-rule="evenodd" d="M67.1051 13.6357C67.1051 13.6357 67.1989 13.0395 66.5897 12.5754C66.5797 11.7075 66.6023 11.4841 66.9545 11.48C67.3067 11.476 68.1137 11.6403 68.1188 12.0866C68.1234 12.4833 67.4573 13.6317 67.1051 13.6357Z" fill="#2B2B2B"/>
<path fill-rule="evenodd" clip-rule="evenodd" d="M66.5177 12.8491C66.5177 12.8491 66.5735 13.3197 66.8508 13.3661C66.3994 13.4952 66.1189 13.1761 66.1189 13.1761C66.1189 13.1761 66.4957 13.1222 66.5177 12.8491Z" fill="#2B2B2B"/>
<path fill-rule="evenodd" clip-rule="evenodd" d="M68.1791 13.0034C68.1791 13.0034 67.8949 14.5442 67.3715 14.9718C66.8735 15.4239 67.752 15.2402 67.752 15.2402C67.752 15.2402 67.7059 15.6127 66.9829 16.1914C66.3103 16.7695 66.846 17.4081 66.846 17.4081C66.846 17.4081 67.0555 18.1248 66.3463 17.7114C66.4786 18.2802 66.5049 18.3791 66.077 18.3592C66.3334 18.7779 67.2196 19.2636 67.763 18.3894C68.2567 17.5654 68.7216 16.4193 68.8697 16.1697C68.3934 16.3239 68.4452 16.4473 67.8143 16.281C67.1582 16.115 68.7894 15.749 69.2059 14.7771C69.5773 14.2521 69.7768 14.101 69.7768 14.101C69.3477 13.9819 69.1979 14.0828 69.3952 13.7334C68.9429 13.7882 68.8958 14.0615 68.593 13.9906C68.29 13.8949 68.9141 13.4661 68.9141 13.4661C68.9141 13.4661 69.2145 13.3387 69.7185 13.4073C69.2606 12.9662 68.6328 13.0726 68.2806 13.0767L68.18 13.0778L68.1791 13.0034Z" fill="#2B2B2B"/>
<path fill-rule="evenodd" clip-rule="evenodd" d="M63.427 17.5715C63.427 17.5715 64.3075 17.5614 64.8292 16.985C65.5573 16.8526 65.9361 16.9723 65.9916 17.418C66.0467 17.8389 65.5447 17.9439 65.547 18.1423C65.549 18.3158 66.1359 19.0282 65.834 19.0317C65.507 19.0354 65.2082 19.3117 64.4204 18.6264C63.608 17.991 63.4353 18.2905 63.4353 18.2905L63.427 17.5715Z" fill="#2B2B2B"/>
<path fill-rule="evenodd" clip-rule="evenodd" d="M65.1341 19.511C65.1341 19.511 64.7044 19.3424 64.4992 18.9976C64.2942 18.6775 63.3397 18.8125 63.2668 19.0365C63.2196 19.3099 62.8588 20.7523 62.6107 21.0527C62.3371 21.3287 62.1518 22.7195 62.0283 22.9193C61.8802 23.169 62.9659 23.5037 62.9659 23.5037C62.9659 23.5037 63.279 22.285 63.9757 21.6074C64.5963 20.8811 65.1364 19.7094 65.1341 19.511Z" fill="#2B2B2B"/>
<path fill-rule="evenodd" clip-rule="evenodd" d="M63.7945 16.7985C63.7945 16.7985 63.1888 16.6319 62.9592 16.3618C62.7045 16.0919 63.408 16.0094 63.6356 16.106C63.9137 16.2268 63.8423 16.5748 63.7945 16.7985Z" fill="#2B2B2B"/>
<path fill-rule="evenodd" clip-rule="evenodd" d="M63.3361 18.4404C63.3361 18.4404 62.7432 19.3896 62.6723 19.7872C62.5765 20.2098 62.2435 19.6929 62.2435 19.6929C62.2435 19.6929 62.8084 18.4961 62.9082 18.4205C63.0328 18.3199 63.3361 18.4404 63.3361 18.4404Z" fill="#2B2B2B"/>
<path fill-rule="evenodd" clip-rule="evenodd" d="M62.0995 20.3394C62.0995 20.3394 62.7532 20.3071 62.4819 20.7814C62.2358 21.2554 61.8799 20.9371 61.8799 20.9371C61.8799 20.9371 62.1035 20.6865 62.0995 20.3394Z" fill="#2B2B2B"/>
<path fill-rule="evenodd" clip-rule="evenodd" d="M62.0876 21.4803C62.0876 21.4803 61.4298 23.3478 61.4363 23.918C61.4429 24.4883 60.6782 23.6292 60.4015 23.6324C60.7454 22.9093 61.509 21.487 61.7857 21.4838C62.0876 21.4803 62.0876 21.4803 62.0876 21.4803Z" fill="#2B2B2B"/>
<path fill-rule="evenodd" clip-rule="evenodd" d="M62.7187 23.8288C62.7187 23.8288 61.9863 23.5892 61.8343 23.4918C61.7071 23.3693 61.4183 24.5133 62.123 24.53C62.8025 24.547 62.8508 24.3728 62.7956 23.9519L62.7187 23.8288Z" fill="#2B2B2B"/>
<path fill-rule="evenodd" clip-rule="evenodd" d="M66.3607 18.9512C66.3607 18.9512 64.5288 21.5513 64.2292 21.7531C64.8107 21.9944 65.6957 22.381 65.9942 22.08C66.2678 21.804 67.2787 20.0069 67.3493 19.5846C67.3702 19.2124 66.7652 19.1201 66.3607 18.9512Z" fill="#2B2B2B"/>
<path fill-rule="evenodd" clip-rule="evenodd" d="M63.3182 23.4002C63.3182 23.4002 63.5589 22.4551 63.9866 22.4502C64.4394 22.445 65.5695 22.2584 66.1289 22.7727C66.6335 22.8909 66.9625 23.0607 67.2661 23.206C67.5445 23.3516 67.8496 23.6209 68.403 23.6145C68.9313 23.6084 69.4613 23.7511 69.4613 23.7511C68.4813 23.8616 67.6503 23.7967 67.3999 23.8988C67.0991 24.0015 66.4236 24.3316 66.0463 24.336C65.6941 24.34 63.7296 24.1642 63.3245 23.9457C62.9448 23.7517 62.9448 23.7517 62.9448 23.7517C64.3542 23.7851 65.1623 24.0485 65.5114 23.7717C65.885 23.4451 63.3182 23.4002 63.3182 23.4002Z" fill="#2B2B2B"/>
<path fill-rule="evenodd" clip-rule="evenodd" d="M60.519 22.8623C60.519 22.8623 57.829 23.042 57.5265 22.9959C58.2849 23.3096 60.0742 23.5618 60.2251 23.56C60.4012 23.558 60.519 22.8623 60.519 22.8623Z" fill="#2B2B2B"/>
<path fill-rule="evenodd" clip-rule="evenodd" d="M54.0293 12.1001C54.0293 12.1001 54.6085 12.143 54.7897 12.5873C54.9458 13.0319 54.3615 12.5426 54.3615 12.5426L54.0293 12.1001Z" fill="#2B2B2B"/>
<path fill-rule="evenodd" clip-rule="evenodd" d="M60.0429 9.92283C60.0429 9.92283 59.3869 9.75679 59.3631 9.88106C59.3394 10.0053 59.6967 10.4476 59.7004 10.7699C59.7041 11.0922 59.693 10.1252 60.0192 10.0471L60.0429 9.92283Z" fill="#2B2B2B"/>
<path fill-rule="evenodd" clip-rule="evenodd" d="M58.9379 16.7303C58.9379 16.7303 55.1873 16.575 54.659 16.5811C54.1559 16.5869 53.4189 18.1329 53.2728 18.5561C53.127 19.0042 53.127 19.0042 53.127 19.0042C53.0258 18.9557 52.8766 19.1062 52.703 19.3314C52.5549 19.5811 52.1027 19.6359 52.1027 19.6359C52.1027 19.6359 50.5461 19.9266 49.7122 19.6138C48.8283 19.3264 48.593 20.7426 48.4421 20.7443C48.266 20.7464 48.5821 21.9826 48.5821 21.9826C48.5821 21.9826 49.0509 25.5482 49.3027 25.5701C49.5546 25.592 49.9302 25.4389 50.2404 26.1545C50.5256 26.8951 52.0854 26.8772 52.0854 26.8772C52.1031 26.2322 52.1031 26.2322 52.1031 26.2322C52.1031 26.2322 51.8264 26.2354 51.5208 25.9165C51.2404 25.5974 50.9053 24.9069 50.2232 24.6668C49.5409 24.4018 50.4711 24.3415 50.4711 24.3415C50.4711 24.3415 50.1649 23.9731 49.5563 23.5585C48.9483 23.1935 49.2062 21.5539 49.3809 21.4279C49.5304 21.3022 49.7525 20.9276 49.8251 20.6788C49.8471 20.4058 52.3928 20.7981 52.9174 20.4697C53.3917 20.1418 53.5969 20.4866 53.0867 19.8726C52.6013 19.2334 55.2741 19.7482 55.2741 19.7482C55.2741 19.7482 56.7838 19.7556 57.4413 20.0456C58.124 20.3354 60.8772 21.2708 61.2328 21.5643C61.5884 21.8578 62.2569 18.7255 62.6531 18.1754C63.0748 17.6498 59.3919 16.8242 59.3919 16.8242C59.3919 16.8242 58.0402 19.6172 57.839 19.6195C57.6629 19.6215 57.6109 19.4733 58.9379 16.7303Z" fill="#2B2B2B"/>
<path fill-rule="evenodd" clip-rule="evenodd" d="M57.4378 21.8808C57.4378 21.8808 56.2766 21.547 56.1462 21.1517C56.0156 20.7317 57.8151 21.8765 58.0667 21.8736C58.3183 21.8707 58.0744 22.5431 57.8995 22.6443C57.7497 22.7452 58.7788 22.535 58.9295 22.5084C59.0801 22.4819 60.591 22.5885 60.581 21.7207C59.8503 21.6299 59.1476 21.7868 58.2057 20.8305C56.9967 20.7204 56.3121 20.2571 55.907 20.0386C55.4762 19.7708 54.1455 20.0093 54.1455 20.0093C54.1455 20.0093 53.9996 20.4573 55.5088 20.4151C55.989 20.608 56.1671 20.7795 55.9659 20.7818C55.7646 20.7842 53.8759 20.6323 52.2693 20.9484C52.2693 20.9484 51.3899 21.0577 50.986 20.9383C50.5317 20.8196 49.8622 21.6704 49.8622 21.6704C49.8622 21.6704 49.4937 22.4434 49.7755 22.8865C50.0574 23.3297 51.7897 25.1944 51.8723 25.8134C52.6573 26.2507 53.34 26.5405 53.5438 26.7613C53.7479 27.0069 54.175 26.9524 54.3277 27.0995C54.5055 27.2462 56.2599 26.6557 56.2599 26.6557C56.2599 26.6557 56.1167 25.1446 54.2548 25.1412C53.9561 25.4174 53.9363 25.8888 53.5821 25.7193C53.2277 25.525 53.6785 25.3462 53.6756 25.0983C53.6728 24.8503 53.2205 24.9051 53.0942 24.857C52.9681 24.8337 52.5113 24.4917 52.4578 24.2196C52.4298 23.9719 51.3636 23.141 51.3636 23.141C51.3636 23.141 50.9025 22.4272 52.2895 22.7088C53.6763 22.9656 53.6597 23.7098 56.3978 23.3311C57.4489 22.8478 57.4378 21.8808 57.4378 21.8808Z" fill="#2B2B2B"/>
<path fill-rule="evenodd" clip-rule="evenodd" d="M66.6475 21.9733C66.6475 21.9733 67.6546 19.8539 67.6501 19.4572C67.6449 19.0108 69.1567 17.0096 69.0772 16.6633C70.1332 16.6016 76.1031 17.2025 77.1216 18.2571C78.1908 19.3359 78.8233 21.8332 78.8407 23.3457C78.1881 23.4772 77.0103 23.8875 76.4148 24.6135C75.8865 24.6196 74.751 24.3351 74.3988 24.3392C74.0466 24.3432 73.6195 24.3977 72.9841 23.8347C71.9521 23.7969 71.6753 23.8001 71.3231 23.8042C71.0213 23.8077 70.3632 23.468 70.3632 23.468C70.3632 23.468 69.5522 22.9566 68.3447 22.9705C67.6612 22.6064 67.281 22.3628 66.6255 22.2463L66.6223 21.9736L66.6475 21.9733Z" fill="#2B2B2B"/>
<path fill-rule="evenodd" clip-rule="evenodd" d="M69.2473 16.1656C69.2473 16.1656 75.0857 16.272 77.1176 17.9349C76.2749 16.8534 72.5883 15.7055 69.3682 15.7426C69.0692 15.994 69.2473 16.1656 69.2473 16.1656Z" fill="#2B2B2B"/>
<path fill-rule="evenodd" clip-rule="evenodd" d="M71.6777 24.0728C71.6777 24.0728 72.1677 25.1086 72.3472 25.4042C72.5267 25.6997 74.3757 26.7695 75.8362 26.8767C77.2716 26.9842 80.4671 26.997 80.6949 27.1184C80.9479 27.2395 81.9544 29.4349 82.4373 29.8509C82.4947 30.4702 82.3981 30.8185 83.2302 30.9825C84.1127 31.146 83.5681 31.921 84.6536 32.2309C85.7639 32.5157 84.9517 31.9051 85.5807 31.8978C86.1844 31.8909 85.633 32.0708 86.4114 31.9379C87.215 31.8046 85.8637 30.2579 85.5604 30.1374C85.2571 30.0169 84.6353 30.644 84.6353 30.644C84.6353 30.644 84.1119 31.0716 84.1985 29.8555C83.6634 29.2665 83.5913 29.5649 83.4601 29.0952C83.3289 28.6256 82.0111 25.6153 81.3985 24.8536C80.7605 24.0674 80.6467 25.1103 79.2336 24.7546C77.8457 24.3986 77.9169 24.0258 77.9169 24.0258C77.9169 24.0258 77.2934 24.5041 76.9921 24.5572C76.6913 24.6598 76.5227 25.3065 76.5227 25.3065C76.5227 25.3065 75.7891 24.9678 75.2342 24.8502C74.7045 24.7323 74.2797 24.9851 74.2797 24.9851C74.2797 24.9851 73.9304 25.2371 72.8644 24.4311C72.0551 24.0684 72.1054 24.0678 71.6777 24.0728Z" fill="#2B2B2B"/>
<path fill-rule="evenodd" clip-rule="evenodd" d="M78.3697 23.9961C78.3697 23.9961 78.8497 24.1641 79.2048 24.408C79.5852 24.6764 80.1873 24.5207 80.1873 24.5207C80.1873 24.5207 79.4684 23.2643 78.3697 23.9961Z" fill="#2B2B2B"/>
<path fill-rule="evenodd" clip-rule="evenodd" d="M79.1377 27.2852C79.1377 27.2852 79.6651 29.3869 79.6751 30.2548C80.1582 30.6956 80.5095 30.6171 80.6401 31.0372C80.7708 31.4573 81.2522 31.7493 81.6261 31.4474C81.9749 31.1458 81.9837 31.9145 81.9837 31.9145C82.7693 32.4014 82.7693 32.4014 82.7693 32.4014C82.7693 32.4014 83.0083 31.3075 82.7553 31.1864C82.5023 31.0654 81.9146 30.2786 81.6582 29.86C81.5358 30.159 81.2822 29.9883 81.1502 29.4442C81.0184 28.925 80.6031 27.8139 80.5999 27.5411C80.5968 27.2684 79.1377 27.2852 79.1377 27.2852Z" fill="#2B2B2B"/>
<path fill-rule="evenodd" clip-rule="evenodd" d="M71.8641 24.9138C71.8641 24.9138 71.5294 24.2481 69.9668 24.0181C70.022 24.439 70.2715 24.2625 70.4496 24.4341C70.6277 24.6056 71.2849 24.8708 71.2875 25.094C71.3155 25.3417 71.871 25.5088 71.8641 24.9138Z" fill="#2B2B2B"/>
<path fill-rule="evenodd" clip-rule="evenodd" d="M77.6702 17.8787C77.5699 17.9046 78.2051 18.4429 78.2809 18.4668C78.635 18.6363 79.2148 18.7288 79.5384 18.4275C79.6916 18.6241 79.92 18.7951 80.0735 19.0165C80.2785 19.3365 80.434 19.7315 80.5389 20.1023C80.8299 21.3389 81.8284 22.8401 83.9164 22.816C84.5719 22.9325 84.9507 23.0521 85.1528 23.1242C85.0982 22.7528 84.7174 22.4596 84.1125 22.3674C84.7135 22.1125 84.9384 21.9859 85.5676 22.0035C86.172 22.0461 86.7037 22.3376 87.0859 22.7548C87.0859 22.7548 87.8154 22.7464 86.1648 21.4263C85.1294 21.091 84.449 20.9996 84.2955 20.7782C84.9736 20.6712 85.6763 20.5144 86.3873 21.0765C87.1485 21.6381 87.0505 21.8624 87.78 21.8541C87.1926 21.0921 87.3189 21.1402 87.0868 20.6469C86.8298 20.1787 86.0482 20.0389 84.9185 20.2503C83.8136 20.4366 83.8367 20.2627 83.8367 20.2627C83.9665 20.6084 83.9665 20.6084 83.9665 20.6084C83.9665 20.6084 82.7104 20.7717 82.2164 19.3886C81.9105 19.045 81.8588 18.9216 81.8588 18.9216C82.39 19.1635 82.6209 19.5576 82.6212 19.5824C82.7493 19.7793 83.2541 19.9223 83.4562 19.9943C84.2132 20.184 84.8873 19.7299 85.6429 19.7956C86.2218 19.8137 86.7029 20.081 87.208 20.2487C86.9239 19.6073 86.6946 19.3619 86.1134 19.1454C85.6858 19.1503 85.5365 19.3008 84.9837 19.3568C84.4053 19.3883 83.3751 19.4993 81.7456 17.8318C80.0236 16.8597 77.6702 17.8787 77.6702 17.8787Z" fill="#2B2B2B"/>
<path fill-rule="evenodd" clip-rule="evenodd" d="M55.2835 16.1278C55.2852 16.2766 55.1102 16.3778 54.8586 16.3807C54.6574 16.383 54.4802 16.2859 54.4784 16.1371C54.477 16.0131 54.6517 15.8871 54.8529 15.8848C55.1048 15.9067 55.282 16.0039 55.2835 16.1278Z" fill="#2B2B2B"/>
<path fill-rule="evenodd" clip-rule="evenodd" d="M55.9094 15.9222C55.9109 16.0461 55.8111 16.1217 55.6601 16.1234C55.5344 16.1249 55.4074 16.0271 55.4063 15.928C55.4052 15.8288 55.5301 15.7529 55.6559 15.7515C55.8068 15.7498 55.9083 15.823 55.9094 15.9222Z" fill="#2B2B2B"/>
<path fill-rule="evenodd" clip-rule="evenodd" d="M56.7407 15.9374C56.7422 16.0614 56.6178 16.1868 56.5423 16.1876C56.4165 16.1891 56.3396 16.066 56.3382 15.942C56.3368 15.818 56.4366 15.7425 56.5372 15.7413C56.6378 15.7402 56.7393 15.8134 56.7407 15.9374Z" fill="#2B2B2B"/>
<path fill-rule="evenodd" clip-rule="evenodd" d="M57.6207 15.9273C57.6221 16.0512 57.4978 16.1767 57.3217 16.1787C57.1707 16.1804 57.0184 16.0582 57.0169 15.9342C57.0155 15.8102 57.1656 15.7341 57.3165 15.7324C57.4926 15.7303 57.6193 15.8033 57.6207 15.9273Z" fill="#2B2B2B"/>
<path fill-rule="evenodd" clip-rule="evenodd" d="M58.5524 16.0157C58.5535 16.1149 58.4034 16.191 58.2273 16.193C58.0512 16.1951 57.874 16.0979 57.8731 16.0235C57.8717 15.8996 58.0472 15.8479 58.2233 15.8459C58.3992 15.8191 58.551 15.8917 58.5524 16.0157Z" fill="#2B2B2B"/>
<path fill-rule="evenodd" clip-rule="evenodd" d="M59.4094 16.0804C59.4111 16.2291 59.2613 16.33 59.1103 16.3318C58.9342 16.3338 58.8073 16.2361 58.8056 16.0873C58.8042 15.9633 58.9285 15.8379 59.1046 15.8359C59.2558 15.8589 59.4079 15.9564 59.4094 16.0804Z" fill="#2B2B2B"/>
<path fill-rule="evenodd" clip-rule="evenodd" d="M60.2699 16.5416C60.2716 16.6904 60.1473 16.8158 59.9963 16.8175C59.8454 16.8193 59.693 16.697 59.6913 16.5482C59.6899 16.4243 59.8394 16.2986 59.9904 16.2968C60.1416 16.3199 60.2685 16.4176 60.2699 16.5416Z" fill="#2B2B2B"/>
<path fill-rule="evenodd" clip-rule="evenodd" d="M61.0254 16.6814C61.0268 16.8054 60.9025 16.9308 60.7767 16.9323C60.6509 16.9337 60.574 16.8106 60.5726 16.6866C60.5712 16.5627 60.6709 16.4871 60.7716 16.486C60.8973 16.4845 61.024 16.5575 61.0254 16.6814Z" fill="#2B2B2B"/>
<path fill-rule="evenodd" clip-rule="evenodd" d="M61.76 17.0204C61.7611 17.1196 61.6359 17.1707 61.4849 17.1724C61.334 17.1741 61.2076 17.126 61.2065 17.0268C61.2059 16.9772 61.3309 16.9014 61.4818 16.8996C61.6582 16.9224 61.7594 16.9708 61.76 17.0204Z" fill="#2B2B2B"/>
<path fill-rule="evenodd" clip-rule="evenodd" d="M61.7364 17.2439C61.7378 17.3678 61.9145 17.4154 62.1157 17.4131C62.317 17.4108 62.4925 17.3592 62.4911 17.2352C62.4899 17.136 62.313 17.0637 62.1117 17.066C61.9105 17.0683 61.7352 17.1447 61.7364 17.2439Z" fill="#2B2B2B"/>
<path fill-rule="evenodd" clip-rule="evenodd" d="M63.1743 17.5743C63.1755 17.6735 63.0505 17.7494 62.9751 17.7502C62.8493 17.7517 62.7727 17.6534 62.7718 17.579C62.7704 17.455 62.8702 17.3795 62.9708 17.3783C63.0714 17.3771 63.1729 17.4504 63.1743 17.5743Z" fill="#2B2B2B"/>
<path fill-rule="evenodd" clip-rule="evenodd" d="M65.8628 6.26037C65.8628 6.26037 63.5681 5.8156 61.3326 6.1389C60.9898 6.96119 60.6934 7.43577 60.5716 7.78434C61.3017 7.82554 61.7036 7.77132 61.7076 8.11845C61.7116 8.46558 60.6387 9.24667 60.2156 9.64831C60.1756 10.5415 60.7361 13.3373 60.9928 13.7807C61.9688 13.3231 64.3704 12.1299 65.8391 6.38463C65.8394 6.40943 65.8645 6.40914 65.89 6.43364C65.9408 6.48265 65.9917 6.53167 66.0429 6.60547C65.6318 8.0485 65.1709 9.5417 64.4313 10.8645C63.6918 12.1873 62.6983 13.3147 61.2221 14.026L61.2735 14.1246C62.7498 13.4133 63.7681 12.2608 64.5077 10.938C65.247 9.59042 65.7327 8.07214 66.1438 6.62911L66.1435 6.60431L66.1181 6.57981C66.0418 6.50629 65.9909 6.45728 65.94 6.40827C65.9146 6.38376 65.8891 6.35926 65.8891 6.35926L65.8628 6.26037Z" fill="#2B2B2B"/>
</svg>
