<svg width="177" height="22" viewBox="0 0 177 22" fill="none" xmlns="http://www.w3.org/2000/svg">
<path fill-rule="evenodd" clip-rule="evenodd" d="M8.49119 12.4199C7.32423 13.0093 6.15494 13.3107 4.68795 13.3276C3.22195 13.3445 1.75165 13.0734 0.864824 12.5077L0.278026 12.5144L0.861511 12.2198C1.73509 11.6347 3.19776 11.329 4.66476 11.3121C6.13175 11.2952 7.30767 11.5706 8.48788 12.132L9.07799 12.4132L8.49119 12.4199ZM9.67373 13.2703C9.39358 14.4254 8.82002 15.5829 7.65637 16.4602C6.49702 17.6254 5.33337 18.5027 4.45648 18.8008L3.86968 18.8075L3.86637 18.5196C4.43992 17.3611 5.01246 16.2026 6.17282 15.0384C7.04308 14.1644 8.20573 13.2872 9.37602 12.9857L9.9595 12.691L9.67373 13.2703ZM10.5506 12.9722L10.8473 13.2568C11.4474 14.4017 11.753 15.5491 11.7696 16.9888C11.7895 18.7164 11.5103 19.8705 10.9334 20.7411L10.6467 21.3203L10.35 21.0358C9.7509 19.8908 9.44326 18.7434 9.42339 17.0158C9.40682 15.5761 9.68698 14.422 10.2605 13.2635L10.5506 12.9722ZM11.3613 6.91644C11.3778 8.35611 11.101 9.79916 10.8175 10.6654L10.5307 11.2436L10.234 10.961C9.635 9.81701 9.32403 8.38072 9.30747 6.94105C9.29092 5.50236 9.57106 4.34725 10.1446 3.18876L10.4347 2.89745L10.7314 3.18201C11.038 4.32939 11.3447 5.47775 11.3613 6.91644ZM2.84807 6.43943L3.43487 6.43268C4.61076 6.70614 5.78767 6.98056 6.97452 8.1188C8.15705 8.96911 9.04719 9.82279 9.64723 10.9668L9.94625 11.5393L9.35613 11.2571C8.18353 11.2706 7.00332 10.7092 5.81979 9.85894C4.63294 8.72071 3.74381 7.86701 3.14376 6.72203L2.84807 6.43943ZM165.999 10.6077L166.299 11.1802C166.896 12.0373 167.206 13.4736 167.223 14.9123C167.239 16.3519 166.959 17.507 166.386 18.6645L166.099 19.2428L165.799 18.6703C165.492 17.5229 165.185 16.3746 165.169 14.9349C165.152 13.4962 165.429 12.0532 165.713 11.186L165.999 10.6077ZM173.384 15.1283L173.684 15.7008L173.094 15.4197C171.917 15.1452 170.742 14.8708 169.556 13.7325C168.372 12.8832 167.482 12.0295 166.882 10.8846L166.582 10.3121L167.172 10.5932C168.346 10.5797 169.526 11.1421 170.709 11.9924C171.894 13.1316 172.784 13.9843 173.384 15.1283ZM168.04 9.43235C169.207 8.84397 170.377 8.54253 171.842 8.52567C173.309 8.5088 174.486 8.78323 175.666 9.34461L176.253 9.33786L175.67 9.63352C174.796 10.2185 173.332 10.5233 171.865 10.5402C170.4 10.5571 169.223 10.2827 168.043 9.72127L167.453 9.43911L168.04 9.43235ZM166.856 8.58304C167.137 7.42891 167.71 6.27042 168.874 5.39311C170.034 4.22787 170.904 3.35493 172.073 3.05351L172.659 3.04676L172.663 3.33469C172.089 4.49318 171.518 5.65066 170.357 6.8159C169.487 7.68885 168.323 8.56616 167.153 8.8676L166.57 9.16228L166.856 8.58304ZM165.883 0.53297L166.184 1.10546C166.78 1.96251 166.794 3.11327 166.813 4.84088C166.83 6.28055 166.843 7.43228 166.27 8.58979L165.983 9.16903L165.683 8.59654C165.083 7.45254 164.776 6.30418 164.76 4.86451C164.74 3.13789 165.02 1.98277 165.597 1.11221L165.883 0.53297ZM160.105 3.62955L155.124 3.68687L155.128 4.08192C156.57 4.1695 157.167 4.32874 157.195 6.72066L157.275 13.6684L157.232 13.6689L148.998 3.75636L145.374 3.79806L145.379 4.19311C146.226 4.18336 146.568 4.28361 147.448 5.31431L147.553 14.4869C147.579 16.7334 147.137 17.051 145.528 17.1737L145.533 17.5688L150.515 17.5115L150.51 17.1164C148.96 17.0723 148.511 16.6195 148.487 14.4762L148.393 6.36392L148.436 6.36343L157.892 17.6585L158.252 17.6544L158.126 6.71092C158.098 4.27675 158.776 4.18639 160.11 4.02558L160.105 3.62955ZM136.829 17.2129C134.476 17.24 132.293 15.4134 132.241 10.8369C132.186 6.09436 134.52 4.38193 136.681 4.35707C138.844 4.33218 141.214 5.99048 141.269 10.733C141.322 15.3095 139.181 17.1858 136.829 17.2129ZM136.837 17.9647C140.675 17.9205 143.737 15.1569 143.686 10.7259C143.631 5.94104 140.148 3.56825 136.672 3.60824C133.197 3.64823 129.769 6.10055 129.824 10.8854C129.875 15.3164 133 18.0088 136.837 17.9647ZM122.506 17.8357L128.801 17.7633L128.797 17.3682C127.228 17.344 126.715 17.1425 126.696 15.5201L126.59 6.28454C126.571 4.62081 127.099 4.4683 128.647 4.38856L128.643 3.99351L122.347 4.06595L122.352 4.461C124.111 4.52429 124.411 4.77048 124.429 6.3094L124.535 15.5449C124.552 17.0219 124.302 17.3777 122.501 17.4406L122.506 17.8357ZM107.224 18.0115L113.115 17.9437L113.11 17.5487C111.457 17.4635 111.241 17.0709 111.225 15.6981L111.176 11.4134L117.599 11.3395L117.645 15.3962C117.663 16.9557 117.582 17.4147 115.804 17.5187L115.808 17.9137L121.701 17.8459L121.697 17.4509C120.041 17.3657 119.826 16.9731 119.81 15.6003L119.704 6.36476C119.687 4.88775 119.938 4.61457 121.548 4.47123L121.543 4.07618L115.65 4.14398L115.655 4.53903C117.224 4.64579 117.524 4.85071 117.542 6.38964L117.588 10.4246L111.165 10.4985L111.119 6.46354C111.102 4.98652 111.353 4.71334 112.961 4.57002L112.956 4.17497L107.065 4.24275L107.07 4.6378C108.639 4.74457 108.937 4.94951 108.955 6.48843L109.059 15.496C109.077 17.0555 108.998 17.5144 107.219 17.6184L107.224 18.0115ZM104.347 3.98016L103.904 3.98527C103.863 4.21375 103.764 4.69354 103.171 4.70036C102.641 4.70646 101.486 4.01308 100.216 4.0277C98.3091 4.04964 96.3918 5.23636 96.4191 7.60764C96.4428 9.6674 97.8102 10.5677 99.7735 11.6469C102.909 13.3995 103.258 14.1032 103.272 15.2893C103.285 16.4125 102.449 17.6085 100.754 17.628C97.8928 17.6609 96.7792 14.9689 96.3654 13.9957L95.8788 14.0013L96.5654 18.4074L97.033 18.402C97.0292 18.0659 97.2364 17.7097 97.682 17.7046C98.3179 17.6973 99.3645 18.3968 100.974 18.3783C104.005 18.3434 105.424 16.326 105.403 14.5581C105.354 10.2932 98.2699 9.95892 98.234 6.83882C98.2192 5.5495 99.2932 4.89141 100.354 4.87921C102.58 4.8536 103.958 6.71006 104.338 8.4119L104.868 8.4058L104.347 3.98016ZM84.2481 12.9282L86.6196 7.17983L89.1457 12.8719L84.2481 12.9282ZM94.6922 17.7596C93.7582 17.7084 93.4581 17.4819 92.7627 15.9714L87.3486 4.21702L86.9251 4.22189L82.6336 14.4869C82.2416 15.4074 81.6011 16.9333 81.1205 17.4587C80.7435 17.8582 80.3835 17.9036 80.0443 17.9291L80.0488 18.3242L84.2455 18.2759L84.241 17.8808C83.7954 17.886 82.8 17.8974 82.7899 17.0228C82.7873 16.7948 82.8471 16.5032 82.9501 16.2308L83.8974 13.7854L89.45 13.7215L90.3431 15.7083C90.4736 15.9978 90.7569 16.6805 90.7607 17.0137C90.7696 17.7831 90.0699 17.8128 89.2858 17.8218L89.2904 18.2169L94.6957 18.1547L94.6912 17.7596L94.6922 17.7596ZM78.5225 13.5356L78.467 8.70956L77.9793 8.71517C77.786 10.2772 77.4083 10.6982 75.6709 10.7182L73.6872 10.741L73.6341 6.12329C73.6269 5.49927 73.7731 5.41404 74.3038 5.40794L76.4938 5.38274C78.847 5.35566 79.4016 5.68247 79.7413 7.53023L80.2711 7.52413L80.1738 4.55019L69.6104 4.67173L69.6149 5.06678C70.9509 5.15559 71.4621 5.27453 71.481 6.91762L71.5846 15.9251C71.6042 17.6302 71.3535 17.9456 69.7643 18.0474L69.7688 18.4425L75.7039 18.3742L75.6994 17.9791C74.1936 17.9345 73.7671 17.6898 73.7492 16.1292L73.6968 11.5734L75.6809 11.5918C77.2705 11.607 77.7814 11.7967 78.0349 13.5422L78.5225 13.5366L78.5225 13.5356ZM63.6543 4.73928L59.012 4.79269L59.0165 5.18774C59.6734 5.18018 60.479 5.2122 60.4864 5.85784C60.4897 6.14872 60.3444 6.40003 60.1988 6.63071L57.2218 11.3669L54.0314 6.78521C53.838 6.51715 53.6633 6.12406 53.6606 5.89509C53.6539 5.31234 54.1834 5.28561 55.1583 5.23312L55.1537 4.83806L49.2187 4.90635L49.2232 5.3014C50.1775 5.37396 50.4966 5.43222 52.6944 8.52745L55.5172 12.4892L55.5588 16.1095C55.577 17.6897 55.5194 18.169 53.4421 18.2352L53.4466 18.6303L59.9334 18.5556L59.9289 18.1606C58.0211 18.1619 57.7406 17.8113 57.7234 16.3136L57.677 12.2786L60.7601 7.54124C62.1968 5.31922 62.8958 5.22861 63.6578 5.1363L63.6533 4.73929L63.6543 4.73928ZM45.5363 18.3252C43.7552 18.2838 43.4963 17.8907 43.48 16.4765L43.3577 5.84655L44.5023 5.83338C46.8334 5.80656 47.4315 6.17414 47.9035 8.45676L48.4122 8.45091L48.2443 4.9156L36.289 5.05315L36.2026 8.59139L36.7113 8.58553C37.1518 6.31305 37.719 5.91142 40.0512 5.88459L41.1958 5.87142L41.3154 16.2724C41.3331 17.8114 41.2756 18.2907 39.3469 18.3964L39.3514 18.7914L45.5409 18.7202L45.5363 18.3252ZM29.2828 18.9083L35.5783 18.8358L35.5738 18.4408C34.0052 18.4166 33.4931 18.2151 33.4744 16.5926L33.3682 7.35712C33.349 5.69339 33.877 5.54087 35.4244 5.46115L35.4199 5.0661L29.1243 5.13853L29.1289 5.53358C30.8892 5.59687 31.1895 5.84305 31.2072 7.38198L31.3135 16.6175C31.3305 18.0945 31.0802 18.4502 29.2782 18.5132L29.2828 18.9083ZM27.7969 9.54219L27.5528 4.86373L27.1082 4.86884C26.9469 5.55672 26.2469 5.56478 26.1408 5.566C25.6742 5.57137 24.2884 4.90129 22.4018 4.92299C18.7559 4.96494 15.224 7.52264 15.2776 12.1827C15.3372 17.3625 19.0272 19.3211 22.4398 19.2819C26.3401 19.237 28.1337 16.6128 28.1532 16.5703L27.7674 16.2003C27.1177 16.8319 25.6086 18.3264 23.001 18.3564C20.3304 18.3872 17.7872 16.607 17.7364 12.1966C17.702 9.20132 18.6189 7.86 19.4369 7.0594C20.3173 6.19617 21.5422 5.76633 22.6017 5.75414C25.2092 5.72414 26.7544 7.37031 27.3093 9.54878L27.797 9.54317L27.7969 9.54219Z" fill="#131313"/>
</svg>
