<svg width="177" height="32" viewBox="0 0 177 32" fill="none" xmlns="http://www.w3.org/2000/svg">
<path d="M11.8516 0.0761719H22.6973V12.1172L11.8516 0.0761719ZM0.373047 7.14258H0.267578C0.267578 4.72852 0.923828 2.94727 2.23633 1.79883C3.54883 0.650391 5.57031 0.0761719 8.30078 0.0761719L22.6973 17.5488C22.6973 19.8691 22.0703 21.5273 20.8164 22.5234C19.5977 23.4961 17.6055 23.9824 14.8398 23.9824L0.373047 7.14258ZM0.320312 11.8887L10.7617 24H0.320312V11.8887ZM27.5568 4.56C27.5568 3.336 27.3888 2.436 27.0528 1.86C26.7168 1.26 26.0448 0.959998 25.0368 0.959998H24.3168V0.239999H27.5568C28.4448 0.239999 29.1048 0.359999 29.5368 0.599999C29.9928 0.815999 30.3168 1.224 30.5088 1.824C30.7008 2.424 30.7968 3.336 30.7968 4.56V8.52C31.3008 8.016 31.9488 7.596 32.7408 7.26C33.5568 6.9 34.4688 6.72 35.4768 6.72C37.2768 6.72 38.7408 7.2 39.8688 8.16C41.0208 9.12 41.5968 10.8 41.5968 13.2V24H38.3568V13.2C38.3568 11.52 37.9728 10.296 37.2048 9.528C36.4608 8.736 35.5248 8.34 34.3968 8.34C33.1248 8.34 31.9248 8.976 30.7968 10.248V24H27.5568V4.56ZM53.5595 24.36C51.9275 24.36 50.5115 23.976 49.3115 23.208C48.1115 22.416 47.1995 21.348 46.5755 20.004C45.9515 18.66 45.6395 17.172 45.6395 15.54C45.6395 13.908 45.9515 12.42 46.5755 11.076C47.1995 9.732 48.1115 8.676 49.3115 7.908C50.5115 7.116 51.9275 6.72 53.5595 6.72C55.1915 6.72 56.6075 7.116 57.8075 7.908C59.0075 8.676 59.9195 9.732 60.5435 11.076C61.1675 12.42 61.4795 13.908 61.4795 15.54C61.4795 17.172 61.1675 18.66 60.5435 20.004C59.9195 21.348 59.0075 22.416 57.8075 23.208C56.6075 23.976 55.1915 24.36 53.5595 24.36ZM53.5595 22.92C54.4475 22.92 55.2275 22.596 55.8995 21.948C56.5955 21.3 57.1235 20.412 57.4835 19.284C57.8675 18.156 58.0595 16.908 58.0595 15.54C58.0595 14.172 57.8675 12.924 57.4835 11.796C57.1235 10.668 56.5955 9.78 55.8995 9.132C55.2275 8.484 54.4475 8.16 53.5595 8.16C52.6715 8.16 51.8795 8.484 51.1835 9.132C50.5115 9.78 49.9835 10.668 49.5995 11.796C49.2395 12.924 49.0595 14.172 49.0595 15.54C49.0595 16.908 49.2395 18.156 49.5995 19.284C49.9835 20.412 50.5115 21.3 51.1835 21.948C51.8795 22.596 52.6715 22.92 53.5595 22.92ZM66.2414 11.4C66.2414 10.176 66.0734 9.276 65.7374 8.7C65.4014 8.1 64.7294 7.8 63.7214 7.8H63.0014V7.08H66.2414C67.1534 7.08 67.8374 7.212 68.2934 7.476C68.7734 7.716 69.1094 8.124 69.3014 8.7H69.4814C69.9134 8.148 70.5254 7.68 71.3174 7.296C72.1094 6.912 73.1174 6.72 74.3414 6.72C76.4054 6.72 78.0014 7.56 79.1294 9.24C80.2574 10.896 80.8214 12.996 80.8214 15.54C80.8214 18.108 80.2334 20.22 79.0574 21.876C77.9054 23.532 76.2134 24.36 73.9814 24.36C73.0694 24.36 72.2654 24.264 71.5694 24.072C70.8734 23.88 70.1774 23.616 69.4814 23.28V30.84H66.2414V11.4ZM72.9014 22.92C74.4374 22.92 75.5654 22.248 76.2854 20.904C77.0294 19.56 77.4014 17.772 77.4014 15.54C77.4014 13.332 77.0534 11.556 76.3574 10.212C75.6614 8.844 74.6294 8.16 73.2614 8.16C71.6534 8.16 70.3934 8.88 69.4814 10.32V21.84C70.2014 22.176 70.8254 22.44 71.3534 22.632C71.8814 22.824 72.3974 22.92 72.9014 22.92ZM85.7331 30.12C86.9091 30.12 87.8691 29.844 88.6131 29.292C89.3811 28.764 90.0411 27.78 90.5931 26.34L91.3131 24.36L85.5531 10.32C84.8811 8.592 83.5611 7.632 81.5931 7.44V6.72H84.6531C86.7411 6.72 88.1811 7.68 88.9731 9.6L93.0771 19.572L97.6131 7.08H99.4131L92.3931 26.34C91.6971 28.236 90.9291 29.52 90.0891 30.192C89.2491 30.864 88.1571 31.2 86.8131 31.2H85.7331V30.12ZM129.625 0.0410156H139.346V16.3184C139.346 18.9082 138.754 20.8125 137.57 22.0312C136.27 23.3438 134.143 24 131.189 24H129.625V0.0410156ZM103.539 0.0410156H113.26V24H111.695C107.371 24 104.793 22.5352 103.961 19.6055C103.68 18.6562 103.539 17.5605 103.539 16.3184V0.0410156ZM116.564 0.0585938H126.338V24.0176H116.564V0.0585938ZM149.081 24.36C148.313 24.36 147.533 24.204 146.741 23.892C145.949 23.556 145.265 23.016 144.689 22.272C144.137 21.528 143.861 20.544 143.861 19.32C143.861 17.496 144.701 16.2 146.381 15.432C148.085 14.664 150.305 14.28 153.041 14.28H154.121C154.121 11.928 153.797 10.32 153.149 9.456C152.501 8.592 151.565 8.16 150.341 8.16C149.261 8.16 148.397 8.388 147.749 8.844C147.101 9.3 146.645 10.092 146.381 11.22H144.761C144.761 10.404 144.809 9.768 144.905 9.312C145.001 8.832 145.253 8.388 145.661 7.98C146.093 7.548 146.801 7.236 147.785 7.044C148.793 6.828 149.885 6.72 151.061 6.72C153.005 6.72 154.541 7.248 155.669 8.304C156.797 9.336 157.361 11.328 157.361 14.28V24H155.561L154.301 22.38H154.121C153.689 22.932 153.053 23.4 152.213 23.784C151.373 24.168 150.329 24.36 149.081 24.36ZM150.701 22.74C151.493 22.74 152.153 22.548 152.681 22.164C153.209 21.78 153.689 21.252 154.121 20.58V15.72H153.041C151.265 15.72 149.861 16.056 148.829 16.728C147.797 17.376 147.281 18.24 147.281 19.32C147.281 20.424 147.605 21.276 148.253 21.876C148.925 22.452 149.741 22.74 150.701 22.74ZM163.218 30.12C164.394 30.12 165.354 29.844 166.098 29.292C166.866 28.764 167.526 27.78 168.078 26.34L168.798 24.36L163.038 10.32C162.366 8.592 161.046 7.632 159.077 7.44V6.72H162.138C164.226 6.72 165.666 7.68 166.458 9.6L170.562 19.572L175.098 7.08H176.898L169.878 26.34C169.182 28.236 168.414 29.52 167.574 30.192C166.734 30.864 165.642 31.2 164.298 31.2H163.218V30.12Z" fill="url(#paint0_linear_1180_2595)"/>
<defs>
<linearGradient id="paint0_linear_1180_2595" x1="88" y1="-11" x2="88" y2="51.5" gradientUnits="userSpaceOnUse">
<stop stop-color="white"/>
<stop offset="1" stop-color="#484646"/>
</linearGradient>
</defs>
</svg>
