<svg width="177" height="32" viewBox="0 0 177 32" fill="none" xmlns="http://www.w3.org/2000/svg">
<path d="M11.8516 0.576172H22.6973V12.6172L11.8516 0.576172ZM0.373047 7.64258H0.267578C0.267578 5.22852 0.923828 3.44727 2.23633 2.29883C3.54883 1.15039 5.57031 0.576172 8.30078 0.576172L22.6973 18.0488C22.6973 20.3691 22.0703 22.0273 20.8164 23.0234C19.5977 23.9961 17.6055 24.4824 14.8398 24.4824L0.373047 7.64258ZM0.320312 12.3887L10.7617 24.5H0.320312V12.3887ZM27.5568 5.06C27.5568 3.836 27.3888 2.936 27.0528 2.36C26.7168 1.76 26.0448 1.46 25.0368 1.46H24.3168V0.739999H27.5568C28.4448 0.739999 29.1048 0.859999 29.5368 1.1C29.9928 1.316 30.3168 1.724 30.5088 2.324C30.7008 2.924 30.7968 3.836 30.7968 5.06V9.02C31.3008 8.516 31.9488 8.096 32.7408 7.76C33.5568 7.4 34.4688 7.22 35.4768 7.22C37.2768 7.22 38.7408 7.7 39.8688 8.66C41.0208 9.62 41.5968 11.3 41.5968 13.7V24.5H38.3568V13.7C38.3568 12.02 37.9728 10.796 37.2048 10.028C36.4608 9.236 35.5248 8.84 34.3968 8.84C33.1248 8.84 31.9248 9.476 30.7968 10.748V24.5H27.5568V5.06ZM53.5595 24.86C51.9275 24.86 50.5115 24.476 49.3115 23.708C48.1115 22.916 47.1995 21.848 46.5755 20.504C45.9515 19.16 45.6395 17.672 45.6395 16.04C45.6395 14.408 45.9515 12.92 46.5755 11.576C47.1995 10.232 48.1115 9.176 49.3115 8.408C50.5115 7.616 51.9275 7.22 53.5595 7.22C55.1915 7.22 56.6075 7.616 57.8075 8.408C59.0075 9.176 59.9195 10.232 60.5435 11.576C61.1675 12.92 61.4795 14.408 61.4795 16.04C61.4795 17.672 61.1675 19.16 60.5435 20.504C59.9195 21.848 59.0075 22.916 57.8075 23.708C56.6075 24.476 55.1915 24.86 53.5595 24.86ZM53.5595 23.42C54.4475 23.42 55.2275 23.096 55.8995 22.448C56.5955 21.8 57.1235 20.912 57.4835 19.784C57.8675 18.656 58.0595 17.408 58.0595 16.04C58.0595 14.672 57.8675 13.424 57.4835 12.296C57.1235 11.168 56.5955 10.28 55.8995 9.632C55.2275 8.984 54.4475 8.66 53.5595 8.66C52.6715 8.66 51.8795 8.984 51.1835 9.632C50.5115 10.28 49.9835 11.168 49.5995 12.296C49.2395 13.424 49.0595 14.672 49.0595 16.04C49.0595 17.408 49.2395 18.656 49.5995 19.784C49.9835 20.912 50.5115 21.8 51.1835 22.448C51.8795 23.096 52.6715 23.42 53.5595 23.42ZM66.2414 11.9C66.2414 10.676 66.0734 9.776 65.7374 9.2C65.4014 8.6 64.7294 8.3 63.7214 8.3H63.0014V7.58H66.2414C67.1534 7.58 67.8374 7.712 68.2934 7.976C68.7734 8.216 69.1094 8.624 69.3014 9.2H69.4814C69.9134 8.648 70.5254 8.18 71.3174 7.796C72.1094 7.412 73.1174 7.22 74.3414 7.22C76.4054 7.22 78.0014 8.06 79.1294 9.74C80.2574 11.396 80.8214 13.496 80.8214 16.04C80.8214 18.608 80.2334 20.72 79.0574 22.376C77.9054 24.032 76.2134 24.86 73.9814 24.86C73.0694 24.86 72.2654 24.764 71.5694 24.572C70.8734 24.38 70.1774 24.116 69.4814 23.78V31.34H66.2414V11.9ZM72.9014 23.42C74.4374 23.42 75.5654 22.748 76.2854 21.404C77.0294 20.06 77.4014 18.272 77.4014 16.04C77.4014 13.832 77.0534 12.056 76.3574 10.712C75.6614 9.344 74.6294 8.66 73.2614 8.66C71.6534 8.66 70.3934 9.38 69.4814 10.82V22.34C70.2014 22.676 70.8254 22.94 71.3534 23.132C71.8814 23.324 72.3974 23.42 72.9014 23.42ZM85.7331 30.62C86.9091 30.62 87.8691 30.344 88.6131 29.792C89.3811 29.264 90.0411 28.28 90.5931 26.84L91.3131 24.86L85.5531 10.82C84.8811 9.092 83.5611 8.132 81.5931 7.94V7.22H84.6531C86.7411 7.22 88.1811 8.18 88.9731 10.1L93.0771 20.072L97.6131 7.58H99.4131L92.3931 26.84C91.6971 28.736 90.9291 30.02 90.0891 30.692C89.2491 31.364 88.1571 31.7 86.8131 31.7H85.7331V30.62ZM129.625 0.541016H139.346V16.8184C139.346 19.4082 138.754 21.3125 137.57 22.5312C136.27 23.8438 134.143 24.5 131.189 24.5H129.625V0.541016ZM103.539 0.541016H113.26V24.5H111.695C107.371 24.5 104.793 23.0352 103.961 20.1055C103.68 19.1562 103.539 18.0605 103.539 16.8184V0.541016ZM116.564 0.558594H126.338V24.5176H116.564V0.558594ZM149.081 24.86C148.313 24.86 147.533 24.704 146.741 24.392C145.949 24.056 145.265 23.516 144.689 22.772C144.137 22.028 143.861 21.044 143.861 19.82C143.861 17.996 144.701 16.7 146.381 15.932C148.085 15.164 150.305 14.78 153.041 14.78H154.121C154.121 12.428 153.797 10.82 153.149 9.956C152.501 9.092 151.565 8.66 150.341 8.66C149.261 8.66 148.397 8.888 147.749 9.344C147.101 9.8 146.645 10.592 146.381 11.72H144.761C144.761 10.904 144.809 10.268 144.905 9.812C145.001 9.332 145.253 8.888 145.661 8.48C146.093 8.048 146.801 7.736 147.785 7.544C148.793 7.328 149.885 7.22 151.061 7.22C153.005 7.22 154.541 7.748 155.669 8.804C156.797 9.836 157.361 11.828 157.361 14.78V24.5H155.561L154.301 22.88H154.121C153.689 23.432 153.053 23.9 152.213 24.284C151.373 24.668 150.329 24.86 149.081 24.86ZM150.701 23.24C151.493 23.24 152.153 23.048 152.681 22.664C153.209 22.28 153.689 21.752 154.121 21.08V16.22H153.041C151.265 16.22 149.861 16.556 148.829 17.228C147.797 17.876 147.281 18.74 147.281 19.82C147.281 20.924 147.605 21.776 148.253 22.376C148.925 22.952 149.741 23.24 150.701 23.24ZM163.218 30.62C164.394 30.62 165.354 30.344 166.098 29.792C166.866 29.264 167.526 28.28 168.078 26.84L168.798 24.86L163.038 10.82C162.366 9.092 161.046 8.132 159.077 7.94V7.22H162.138C164.226 7.22 165.666 8.18 166.458 10.1L170.562 20.072L175.098 7.58H176.898L169.878 26.84C169.182 28.736 168.414 30.02 167.574 30.692C166.734 31.364 165.642 31.7 164.298 31.7H163.218V30.62Z" fill="url(#paint0_linear_1118_2597)"/>
<defs>
<linearGradient id="paint0_linear_1118_2597" x1="88" y1="-10.5" x2="88" y2="52" gradientUnits="userSpaceOnUse">
<stop/>
<stop offset="1" stop-color="#474343"/>
</linearGradient>
</defs>
</svg>
